<svg version="1.2" xmlns="http://www.w3.org/2000/svg" viewBox="0 0 960 344" width="960" height="344"><defs><clipPath clipPathUnits="userSpaceOnUse" id="cp1"><path d="m0 0h960v540h-960z"/></clipPath></defs><style>.a{fill:none}.b{fill:#a8c9ff}.c{fill:none;stroke:#000;stroke-linejoin:round}.d{fill:#fff}.e{fill:#cbcbcb}.f{fill:none;stroke:#595959;stroke-linejoin:round}.g{fill:#595959;stroke:#595959}.h{fill:#fff2cc}.i{fill:#f9cb9c}.j{fill:none;stroke:#000;stroke-linejoin:round;stroke-dasharray:4,3}.k{fill:#f4cccc}.l{fill:#e6b8af}.m{stroke:#fff;paint-order:stroke fill markers;stroke-linejoin:round;stroke-width:2}.n{fill:#eee}.o{fill:#f4f4f4}</style><g clip-path="url(#cp1)"><path class="a" d="m0 0h960v540h-960z"/><path fill-rule="evenodd" class="b" d="m139.4 117.5h132.9v67h-132.9z"/><path class="c" d="m139.4 117.5h132.9v67h-132.9z"/><path fill-rule="evenodd" d="m180.1 152.8l0.2 1.4 0.3-1.3 2-7.2h1.2l2 7.2 0.3 1.3 0.2-1.4 1.6-7.1h1.4l-2.5 10.4h-1.3l-2.1-7.6-0.2-0.8-0.1 0.8-2.3 7.6h-1.2l-2.5-10.4h1.3zm13.6 3.4q-1.6 0-2.6-1-1-1.1-1-2.8v-0.3q0-1.1 0.5-2 0.4-0.9 1.2-1.4 0.8-0.5 1.7-0.5 1.5 0 2.4 1 0.8 1 0.8 2.8v0.6h-5.2q0 1.1 0.6 1.8 0.7 0.7 1.6 0.7 0.8 0 1.2-0.3 0.5-0.3 0.9-0.7l0.8 0.6q-1 1.5-2.9 1.5zm-0.2-6.9q-0.8 0-1.3 0.6-0.6 0.5-0.7 1.6h3.9v-0.1q-0.1-1-0.6-1.6-0.5-0.5-1.3-0.5zm11.3 3q0 1.7-0.8 2.8-0.8 1.1-2.2 1.1-1.5 0-2.3-1l-0.1 0.9h-1.2v-11h1.4v4.1q0.8-1 2.2-1 1.4 0 2.2 1 0.8 1.1 0.8 2.9zm-1.3-0.1q0-1.4-0.6-2.1-0.5-0.7-1.5-0.7-1.3 0-1.8 1.2v3.3q0.6 1.2 1.8 1.2 1 0 1.5-0.7 0.6-0.7 0.6-2.2zm12.6 1.2h-4.4l-1 2.7h-1.4l4-10.4h1.2l4 10.4h-1.5zm-3.9-1.1h3.5l-1.8-4.9zm14.1 0.1q0 1.8-0.8 2.8-0.8 1.1-2.2 1.1-1.4 0-2.2-0.9v3.8h-1.3v-10.8h1.2l0.1 0.9q0.8-1 2.2-1 1.4 0 2.2 1 0.8 1.1 0.8 3zm-1.3-0.2q0-1.3-0.6-2.1-0.5-0.7-1.5-0.7-1.2 0-1.8 1v3.7q0.6 1.1 1.8 1.1 1 0 1.5-0.7 0.6-0.8 0.6-2.3zm9.6 0.2q0 1.7-0.9 2.8-0.8 1.1-2.1 1.1-1.4 0-2.3-0.9v3.7h-1.3v-10.7h1.2l0.1 0.9q0.8-1 2.2-1 1.4 0 2.2 1 0.9 1.1 0.9 2.9zm-1.4-0.1q0-1.3-0.5-2.1-0.6-0.7-1.6-0.7-1.2 0-1.8 1v3.7q0.6 1.1 1.9 1.1 0.9 0 1.5-0.8 0.5-0.7 0.5-2.2z"/><path fill-rule="evenodd" class="d" d="m47.5 151c0-16.6 13.5-30 30.1-30 16.6 0 30 13.4 30 30 0 16.6-13.4 30.1-30 30.1-16.6 0-30.1-13.5-30.1-30.1z"/><path fill-rule="evenodd" class="e" d="m64.8 142c0-1.7 1.4-3.1 3.1-3.1 1.8 0 3.2 1.4 3.2 3.1 0 1.8-1.4 3.2-3.2 3.2-1.7 0-3.1-1.4-3.1-3.2zm19.3 0c0-1.7 1.4-3.1 3.1-3.1 1.7 0 3.1 1.4 3.1 3.1 0 1.8-1.4 3.2-3.1 3.2-1.7 0-3.1-1.4-3.1-3.2z"/><path class="a" d="m61.3 164.1q16.3 11.2 32.5 0"/><path class="a" d="m47.5 151c0-16.6 13.5-30 30.1-30 16.6 0 30 13.4 30 30 0 16.6-13.4 30.1-30 30.1-16.6 0-30.1-13.5-30.1-30.1z"/><path class="c" d="m64.8 142c0-1.7 1.4-3.1 3.1-3.1 1.8 0 3.2 1.4 3.2 3.1 0 1.8-1.4 3.2-3.2 3.2-1.7 0-3.1-1.4-3.1-3.2zm19.3 0c0-1.7 1.4-3.1 3.1-3.1 1.7 0 3.1 1.4 3.1 3.1 0 1.8-1.4 3.2-3.1 3.2-1.7 0-3.1-1.4-3.1-3.2z"/><path class="c" d="m61.3 164.1q16.3 11.2 32.5 0"/><path class="c" d="m47.5 151c0-16.6 13.5-30 30.1-30 16.6 0 30 13.4 30 30 0 16.6-13.4 30.1-30 30.1-16.6 0-30.1-13.5-30.1-30.1z"/><path class="a" d="m107.6 151h31.8"/><path class="f" d="m113.6 151h19.8"/><path fill-rule="evenodd" class="g" d="m113.6 152.7l-4.5-1.7 4.5-1.6z"/><path fill-rule="evenodd" class="g" d="m133.4 149.4l4.5 1.6-4.5 1.7z"/><path fill-rule="evenodd" class="h" d="m304.9 57.8h500.9v188.1h-500.9z"/><path class="c" d="m304.9 57.8h500.9v188.1h-500.9z"/><path fill-rule="evenodd" d="m315.1 80.9v-10.4h3.4q1.7 0 2.5 0.7 0.9 0.7 0.9 2.1 0 0.7-0.4 1.3-0.4 0.5-1.1 0.8 0.8 0.3 1.3 0.9 0.5 0.7 0.5 1.6 0 1.4-0.9 2.2-0.9 0.8-2.6 0.8zm1.4-4.9v3.8h2.3q0.9 0 1.5-0.5 0.5-0.5 0.5-1.4 0-1.9-2-1.9zm0-1h2.1q0.9 0 1.4-0.5 0.6-0.5 0.6-1.2 0-0.9-0.5-1.3-0.5-0.4-1.6-0.4h-2zm12.3 6q-0.1-0.2-0.2-0.8-0.9 1-2.2 1-1.1 0-1.8-0.7-0.8-0.6-0.8-1.6 0-1.2 0.9-1.9 1-0.7 2.6-0.7h1.3v-0.6q0-0.7-0.4-1.1-0.4-0.4-1.2-0.4-0.7 0-1.2 0.4-0.5 0.3-0.5 0.8h-1.3q0-0.6 0.4-1.1 0.4-0.5 1.1-0.9 0.7-0.3 1.6-0.3 1.3 0 2 0.7 0.8 0.7 0.8 1.8v3.6q0 1.1 0.3 1.7v0.1zm-2.2-1q0.6 0 1.2-0.3 0.6-0.3 0.8-0.9v-1.5h-1q-2.5 0-2.5 1.4 0 0.6 0.4 1 0.5 0.3 1.1 0.3zm8.5 0.1q0.7 0 1.2-0.4 0.6-0.5 0.6-1.1h1.3q0 0.6-0.5 1.2-0.4 0.6-1.1 1-0.7 0.4-1.5 0.4-1.6 0-2.5-1.1-0.9-1.1-0.9-2.9v-0.2q0-1.1 0.4-2 0.4-0.9 1.2-1.4 0.7-0.5 1.8-0.5 1.3 0 2.2 0.8 0.8 0.8 0.9 2h-1.3q0-0.7-0.5-1.2-0.5-0.5-1.3-0.5-1 0-1.6 0.7-0.5 0.8-0.5 2.1v0.3q0 1.3 0.5 2.1 0.6 0.7 1.6 0.7zm6.7-2.7l-0.8 0.9v2.7h-1.3v-11h1.3v6.7l0.7-0.9 2.4-2.5h1.6l-3 3.2 3.4 4.5h-1.6zm8.4 3.7q-1.6 0-2.6-1-1-1-1-2.8v-0.2q0-1.2 0.5-2.1 0.4-0.9 1.2-1.4 0.8-0.5 1.7-0.5 1.5 0 2.4 1 0.8 1 0.8 2.8v0.6h-5.3q0.1 1.1 0.7 1.8 0.7 0.8 1.6 0.8 0.7 0 1.2-0.3 0.5-0.3 0.9-0.8l0.8 0.6q-1 1.5-2.9 1.5zm-0.2-6.9q-0.8 0-1.3 0.6-0.6 0.6-0.7 1.6h3.9v-0.1q-0.1-1-0.6-1.5-0.5-0.6-1.3-0.6zm6-1v1q0.9-1.1 2.3-1.1 2.5 0 2.5 2.8v5.1h-1.3v-5.1q0-0.9-0.4-1.3-0.4-0.4-1.2-0.4-0.6 0-1.1 0.4-0.5 0.3-0.7 0.9v5.5h-1.4v-7.8zm6.6 3.9q0-1.8 0.8-2.9 0.8-1.1 2.2-1.1 1.4 0 2.2 0.9v-4h1.3v11h-1.2l-0.1-0.8q-0.8 0.9-2.2 0.9-1.4 0-2.2-1.1-0.8-1.1-0.8-2.8zm1.3 0.1q0 1.3 0.5 2.1 0.6 0.7 1.5 0.7 1.3 0 1.9-1.1v-3.6q-0.6-1.1-1.9-1.1-0.9 0-1.5 0.8-0.5 0.7-0.5 2.2z"/><path fill-rule="evenodd" class="i" d="m475.3 117.5h127.5v67h-127.5z"/><path class="c" d="m475.3 117.5h127.5v67h-127.5z"/><path fill-rule="evenodd" d="m500.9 153.4h-4.4l-0.9 2.7h-1.5l4-10.4h1.2l4 10.4h-1.4zm-4-1.1h3.6l-1.8-4.9zm9.1-0.2v4h-1.4v-10.4h3.9q1.7 0 2.7 0.9 0.9 0.9 0.9 2.3 0 1.5-0.9 2.3-0.9 0.9-2.7 0.9zm0-1.2h2.4q1.2 0 1.7-0.5 0.6-0.5 0.6-1.5 0-0.9-0.6-1.5-0.5-0.5-1.6-0.5h-2.5zm9.3 5.2h-1.3v-10.5h1.3zm13.8-3.3q-0.2 1.7-1.2 2.6-1 0.9-2.7 0.9-1.9 0-3-1.3-1.1-1.4-1.1-3.6v-1q0-1.4 0.5-2.5 0.5-1.1 1.5-1.7 1-0.6 2.2-0.6 1.7 0 2.7 0.9 1 0.9 1.1 2.6h-1.3q-0.2-1.3-0.8-1.8-0.6-0.6-1.7-0.6-1.3 0-2.1 1-0.7 1-0.7 2.8v1q0 1.7 0.7 2.7 0.7 1 2 1 1.1 0 1.7-0.6 0.7-0.5 0.9-1.8zm1.3-0.6q0-1.1 0.4-2 0.5-1 1.3-1.5 0.8-0.5 1.8-0.5 1.6 0 2.5 1.1 1 1.1 1 3v0.1q0 1.1-0.4 2-0.5 0.9-1.3 1.4-0.8 0.5-1.8 0.5-1.6 0-2.6-1.1-0.9-1.1-0.9-2.9zm1.3 0.2q0 1.2 0.6 2 0.6 0.8 1.6 0.8 1 0 1.6-0.8 0.6-0.8 0.6-2.2 0-1.3-0.6-2.1-0.6-0.8-1.6-0.8-1 0-1.6 0.8-0.6 0.8-0.6 2.3zm8.6-4l0.1 1q0.9-1.2 2.3-1.2 2.5 0 2.5 2.8v5.1h-1.4v-5.1q0-0.8-0.3-1.2-0.4-0.4-1.2-0.4-0.6 0-1.1 0.3-0.5 0.4-0.8 0.9v5.5h-1.3v-7.7zm8.6-1.9v1.9h1.5v1h-1.5v4.8q0 0.5 0.2 0.7 0.2 0.2 0.7 0.2 0.2 0 0.6 0v1q-0.5 0.2-1 0.2-0.9 0-1.4-0.6-0.4-0.5-0.4-1.5v-4.8h-1.4v-1h1.4v-1.9zm6.7 3.1q-0.3-0.1-0.6-0.1-1.3 0-1.8 1.1v5.5h-1.3v-7.7h1.3v0.9q0.6-1.1 1.8-1.1 0.4 0 0.6 0.2zm0.7 2.6q0-1.2 0.5-2.1 0.4-0.9 1.2-1.4 0.8-0.5 1.9-0.5 1.5 0 2.5 1.1 1 1.1 1 2.9v0.1q0 1.2-0.4 2.1-0.5 0.9-1.3 1.4-0.8 0.5-1.8 0.5-1.6 0-2.6-1.1-1-1.1-1-2.9zm1.4 0.1q0 1.3 0.6 2.1 0.6 0.8 1.6 0.8 1 0 1.6-0.8 0.6-0.8 0.6-2.2 0-1.3-0.6-2.1-0.6-0.8-1.6-0.8-1 0-1.6 0.8-0.6 0.8-0.6 2.2zm8.8 3.8h-1.3v-11h1.3zm3.5 0h-1.3v-11h1.3zm5.4 0.1q-1.6 0-2.6-1-1-1-1-2.7v-0.3q0-1.1 0.5-2 0.4-1 1.2-1.5 0.8-0.5 1.7-0.5 1.5 0 2.4 1 0.8 1 0.8 2.9v0.5h-5.3q0.1 1.2 0.7 1.9 0.7 0.7 1.6 0.7 0.7 0 1.2-0.3 0.5-0.3 0.9-0.8l0.8 0.6q-1 1.5-2.9 1.5zm-0.2-6.9q-0.8 0-1.3 0.6-0.6 0.6-0.7 1.6h3.9v-0.1q-0.1-1-0.6-1.5-0.5-0.6-1.3-0.6zm8.5 0.2q-0.3 0-0.7 0-1.3 0-1.7 1.1v5.5h-1.4v-7.7h1.3v0.9q0.7-1.1 1.9-1.1 0.4 0 0.6 0.1z"/><path fill-rule="evenodd" class="i" d="m326.9 117.5h127.5v31.6h-127.5z"/><path class="j" d="m326.9 117.5h127.5v31.6h-127.5z"/><path fill-rule="evenodd" d="m359.7 134.2h-2.4v4.2h-1.4v-10.4h3.4q1.8 0 2.7 0.8 1 0.8 1 2.3 0 1-0.5 1.7-0.6 0.7-1.5 1.1l2.4 4.4v0.1h-1.4zm-2.5-1.1h2.1q1.1 0 1.7-0.6 0.6-0.5 0.6-1.4 0-1-0.6-1.5-0.6-0.5-1.7-0.5h-2.1zm10.7 5.5q-1.6 0-2.6-1-1-1.1-1-2.8v-0.2q0-1.2 0.5-2.1 0.4-0.9 1.2-1.4 0.8-0.5 1.7-0.5 1.5 0 2.4 1 0.8 1 0.8 2.8v0.6h-5.2q0 1.1 0.6 1.8 0.7 0.7 1.7 0.7 0.7 0 1.1-0.3 0.5-0.3 0.9-0.7l0.8 0.6q-1 1.5-2.9 1.5zm-0.2-6.9q-0.8 0-1.3 0.6-0.6 0.5-0.7 1.6h3.9v-0.1q-0.1-1-0.6-1.6-0.5-0.5-1.3-0.5zm9.3 4.7q0-0.5-0.5-0.8-0.4-0.3-1.4-0.5-1-0.2-1.6-0.5-0.5-0.4-0.8-0.8-0.3-0.4-0.3-1 0-0.9 0.8-1.6 0.8-0.6 2.1-0.6 1.3 0 2.1 0.7 0.8 0.6 0.8 1.7h-1.3q0-0.6-0.5-0.9-0.4-0.4-1.1-0.4-0.8 0-1.2 0.3-0.4 0.3-0.4 0.8 0 0.5 0.4 0.7 0.4 0.3 1.4 0.5 1 0.2 1.6 0.5 0.6 0.3 0.9 0.8 0.3 0.4 0.3 1 0 1.1-0.9 1.7-0.8 0.6-2.1 0.6-0.9 0-1.7-0.3-0.7-0.4-1.1-0.9-0.4-0.6-0.4-1.3h1.3q0.1 0.6 0.6 1 0.5 0.4 1.3 0.4 0.7 0 1.2-0.3 0.5-0.3 0.5-0.8zm9.5-1.7q0 1.7-0.8 2.8-0.8 1.1-2.2 1.1-1.4 0-2.2-0.9v3.7h-1.3v-10.7h1.2l0.1 0.9q0.8-1 2.2-1 1.4 0 2.2 1 0.8 1.1 0.8 3zm-1.3-0.2q0-1.3-0.5-2.1-0.6-0.7-1.6-0.7-1.2 0-1.8 1v3.7q0.6 1.1 1.8 1.1 1 0 1.6-0.8 0.5-0.7 0.5-2.2zm2.7 0q0-1.1 0.4-2 0.5-1 1.3-1.5 0.8-0.5 1.8-0.5 1.6 0 2.5 1.1 1 1.1 1 3v0.1q0 1.1-0.4 2-0.5 0.9-1.3 1.4-0.8 0.5-1.8 0.5-1.6 0-2.6-1.1-0.9-1.1-0.9-2.9zm1.3 0.1q0 1.3 0.6 2.1 0.6 0.8 1.6 0.8 1 0 1.6-0.8 0.6-0.8 0.6-2.2 0-1.3-0.6-2.1-0.6-0.8-1.6-0.8-1 0-1.6 0.8-0.6 0.8-0.6 2.2zm8.6-3.9l0.1 1q0.9-1.2 2.3-1.2 2.5 0 2.5 2.8v5.1h-1.4v-5.1q0-0.8-0.3-1.2-0.4-0.4-1.2-0.4-0.6 0-1.1 0.3-0.5 0.4-0.8 0.9v5.5h-1.3v-7.7zm11.3 5.7q0-0.6-0.4-0.9-0.4-0.3-1.4-0.5-1-0.2-1.6-0.5-0.6-0.3-0.9-0.7-0.2-0.4-0.2-1 0-0.9 0.8-1.6 0.8-0.7 2-0.7 1.3 0 2.2 0.7 0.8 0.7 0.8 1.8h-1.3q0-0.6-0.5-1-0.5-0.4-1.2-0.4-0.7 0-1.1 0.3-0.4 0.4-0.4 0.9 0 0.4 0.4 0.7 0.3 0.2 1.3 0.5 1 0.2 1.6 0.5 0.6 0.3 0.9 0.7 0.3 0.5 0.3 1.1 0 1-0.8 1.6-0.8 0.7-2.1 0.7-1 0-1.7-0.4-0.7-0.3-1.1-0.9-0.4-0.6-0.4-1.3h1.3q0.1 0.7 0.5 1.1 0.5 0.4 1.4 0.4 0.7 0 1.2-0.3 0.4-0.3 0.4-0.8zm6.3 2.2q-1.6 0-2.6-1.1-1-1-1-2.7v-0.3q0-1.1 0.5-2 0.4-0.9 1.2-1.4 0.8-0.6 1.7-0.6 1.5 0 2.4 1 0.8 1 0.8 2.9v0.5h-5.2q0 1.2 0.6 1.9 0.7 0.7 1.7 0.7 0.7 0 1.1-0.3 0.5-0.3 0.9-0.8l0.8 0.7q-1 1.5-2.9 1.5zm-0.2-7q-0.8 0-1.3 0.6-0.6 0.6-0.7 1.7h3.9v-0.2q-0.1-1-0.6-1.5-0.5-0.6-1.3-0.6zm9.3 4.8q0-0.6-0.5-0.9-0.4-0.3-1.4-0.5-1-0.2-1.6-0.5-0.5-0.3-0.8-0.7-0.3-0.4-0.3-1 0-0.9 0.8-1.6 0.8-0.7 2-0.7 1.4 0 2.2 0.7 0.8 0.7 0.8 1.8h-1.3q0-0.6-0.5-1-0.4-0.4-1.2-0.4-0.7 0-1.1 0.3-0.4 0.4-0.4 0.9 0 0.4 0.4 0.7 0.4 0.2 1.4 0.5 1 0.2 1.6 0.5 0.6 0.3 0.9 0.7 0.3 0.5 0.3 1.1 0 1-0.9 1.6-0.8 0.7-2.1 0.7-0.9 0-1.7-0.4-0.7-0.3-1.1-0.9-0.4-0.6-0.4-1.3h1.3q0.1 0.7 0.6 1.1 0.5 0.4 1.3 0.4 0.7 0 1.2-0.3 0.5-0.3 0.5-0.8z"/><path fill-rule="evenodd" class="i" d="m326.9 152.9h127.5v31.6h-127.5z"/><path class="j" d="m326.9 152.9h127.5v31.6h-127.5z"/><path fill-rule="evenodd" d="m365.2 169.6h-2.4v4.2h-1.4v-10.4h3.5q1.7 0 2.7 0.8 0.9 0.8 0.9 2.3 0 1-0.5 1.7-0.6 0.7-1.5 1.1l2.5 4.4v0.1h-1.5zm-2.5-1.1h2.2q1 0 1.6-0.5 0.6-0.6 0.6-1.5 0-0.9-0.6-1.4-0.6-0.6-1.6-0.6h-2.2zm10.7 5.5q-1.6 0-2.6-1-0.9-1-0.9-2.8v-0.2q0-1.2 0.4-2.1 0.4-0.9 1.2-1.4 0.8-0.5 1.7-0.5 1.5 0 2.4 1 0.8 1 0.8 2.8v0.6h-5.2q0 1.1 0.6 1.8 0.7 0.7 1.7 0.7 0.7 0 1.2-0.2 0.5-0.3 0.8-0.8l0.8 0.6q-1 1.5-2.9 1.5zm-0.2-6.9q-0.8 0-1.3 0.6-0.6 0.6-0.7 1.6h3.9v-0.1q-0.1-1-0.6-1.6-0.4-0.5-1.3-0.5zm4.4 2.8q0-1.8 0.9-2.8 0.8-1.1 2.2-1.1 1.4 0 2.2 0.9v-0.8h1.3v10.8h-1.4v-3.7q-0.8 0.8-2.1 0.8-1.4 0-2.2-1.1-0.9-1.1-0.9-2.9zm1.4 0.2q0 1.3 0.5 2.1 0.6 0.7 1.5 0.7 1.2 0 1.8-1v-3.8q-0.6-1-1.8-1-0.9 0-1.5 0.7-0.5 0.8-0.5 2.3zm12.1 3q-0.8 0.9-2.3 0.9-1.2 0-1.9-0.7-0.6-0.7-0.6-2.1v-5.1h1.3v5q0 1.8 1.4 1.8 1.5 0 2-1.1v-5.7h1.4v7.8h-1.3zm6.5 0.9q-1.6 0-2.6-1-0.9-1.1-0.9-2.8v-0.3q0-1.1 0.4-2 0.4-0.9 1.2-1.4 0.8-0.5 1.7-0.5 1.6 0 2.4 1 0.8 1 0.8 2.8v0.5h-5.2q0 1.2 0.6 1.9 0.7 0.7 1.7 0.7 0.7 0 1.2-0.3 0.5-0.3 0.8-0.7l0.8 0.6q-1 1.5-2.9 1.5zm-0.2-7q-0.8 0-1.3 0.6-0.6 0.6-0.7 1.7h3.9v-0.1q0-1-0.5-1.6-0.5-0.6-1.4-0.6zm9.3 4.8q0-0.6-0.4-0.8-0.4-0.3-1.5-0.5-1-0.3-1.5-0.6-0.6-0.3-0.9-0.7-0.3-0.4-0.3-1 0-0.9 0.8-1.6 0.8-0.6 2.1-0.6 1.3 0 2.1 0.6 0.8 0.7 0.8 1.8h-1.3q0-0.6-0.5-1-0.4-0.4-1.1-0.4-0.8 0-1.2 0.4-0.4 0.3-0.4 0.8 0 0.5 0.4 0.7 0.4 0.3 1.4 0.5 1 0.2 1.6 0.5 0.6 0.3 0.9 0.7 0.3 0.5 0.3 1.1 0 1-0.8 1.7-0.9 0.6-2.2 0.6-0.9 0-1.6-0.3-0.8-0.4-1.2-1-0.4-0.6-0.4-1.2h1.4q0 0.6 0.5 1 0.5 0.4 1.3 0.4 0.8 0 1.2-0.3 0.5-0.3 0.5-0.8zm4.8-7.6v1.9h1.5v1h-1.5v4.8q0 0.5 0.2 0.7 0.2 0.3 0.7 0.3 0.2 0 0.6-0.1v1q-0.5 0.2-1 0.2-0.9 0-1.4-0.5-0.4-0.6-0.4-1.6v-4.8h-1.4v-1h1.4v-1.9zm7.5 7.6q0-0.6-0.4-0.8-0.4-0.3-1.4-0.5-1-0.3-1.6-0.6-0.6-0.3-0.9-0.7-0.3-0.4-0.3-1 0-0.9 0.8-1.6 0.8-0.6 2.1-0.6 1.3 0 2.1 0.6 0.8 0.7 0.8 1.8h-1.3q0-0.6-0.5-1-0.4-0.4-1.1-0.4-0.7 0-1.2 0.4-0.4 0.3-0.4 0.8 0 0.5 0.4 0.7 0.4 0.3 1.4 0.5 1 0.2 1.6 0.5 0.6 0.3 0.9 0.7 0.3 0.5 0.3 1.1 0 1-0.8 1.7-0.9 0.6-2.2 0.6-0.9 0-1.6-0.3-0.7-0.4-1.1-1-0.4-0.6-0.4-1.2h1.3q0 0.6 0.5 1 0.5 0.4 1.3 0.4 0.8 0 1.2-0.3 0.5-0.3 0.5-0.8z"/><path class="a" d="m272.3 151l54.6 17.7"/><path class="f" d="m272.3 151l48.9 15.9"/><path fill-rule="evenodd" class="g" d="m321.7 165.3l3.8 3-4.8 0.1z"/><path class="a" d="m454.4 168.7l20.9-17.7"/><path class="f" d="m454.4 168.7l16.3-13.8"/><path fill-rule="evenodd" class="g" d="m469.6 153.6l4.6-1.6-2.4 4.2z"/><path class="a" d="m326.9 133.3l-54.6 17.7"/><path class="f" d="m326.9 133.3l-48.9 15.9"/><path fill-rule="evenodd" class="g" d="m278.5 150.7l-4.8-0.1 3.8-3z"/><path class="a" d="m475.3 151l-20.9-17.7"/><path class="f" d="m475.3 151l-16.3-13.8"/><path fill-rule="evenodd" class="g" d="m457.9 138.5l-2.4-4.2 4.5 1.6z"/><path class="a" d="m602.8 151h32.4"/><path class="f" d="m608.8 151h20.4"/><path fill-rule="evenodd" class="g" d="m608.8 152.7l-4.5-1.7 4.5-1.6z"/><path fill-rule="evenodd" class="g" d="m629.2 149.4l4.6 1.6-4.6 1.7z"/><path fill-rule="evenodd" class="k" d="m635.2 70.9h154.8v160.2h-154.8z"/><path class="c" d="m635.2 70.9h154.8v160.2h-154.8z"/><path fill-rule="evenodd" d="m648.5 89.4q-1.8-0.5-2.6-1.3-0.8-0.7-0.8-1.8 0-1.2 1-2 1-0.8 2.6-0.8 1 0 1.9 0.4 0.8 0.4 1.3 1.1 0.5 0.8 0.5 1.6h-1.4q0-0.9-0.6-1.5-0.6-0.5-1.7-0.5-1 0-1.6 0.4-0.6 0.5-0.6 1.3 0 0.6 0.6 1.1 0.5 0.4 1.8 0.8 1.3 0.3 2 0.8 0.8 0.4 1.1 1 0.4 0.6 0.4 1.4 0 1.2-1 2-1 0.8-2.7 0.8-1 0-2-0.4-0.9-0.5-1.4-1.2-0.5-0.7-0.5-1.6h1.4q0 0.9 0.7 1.5 0.7 0.5 1.8 0.5 1.1 0 1.7-0.4 0.6-0.5 0.6-1.2 0-0.8-0.6-1.2-0.5-0.4-1.9-0.8zm8.6 4.8q-1.5 0-2.5-1.1-1-1-1-2.7v-0.3q0-1.1 0.4-2 0.5-0.9 1.3-1.5 0.7-0.5 1.7-0.5 1.5 0 2.3 1 0.9 1 0.9 2.9v0.5h-5.3q0 1.2 0.7 1.9 0.6 0.7 1.6 0.7 0.7 0 1.2-0.3 0.5-0.3 0.9-0.8l0.8 0.7q-1 1.5-3 1.5zm-0.1-7q-0.8 0-1.4 0.6-0.5 0.6-0.6 1.6h3.8v-0.1q0-1-0.5-1.5-0.5-0.6-1.3-0.6zm8.4 0.3q-0.3-0.1-0.6-0.1-1.3 0-1.8 1.1v5.5h-1.3v-7.7h1.3v0.9q0.7-1.1 1.8-1.1 0.4 0 0.6 0.1zm3.9 4.8l1.9-6h1.4l-2.8 7.8h-1l-2.8-7.8h1.4zm5.9 1.8h-1.3v-7.7h1.3zm-1.4-9.8q0-0.3 0.2-0.5 0.2-0.3 0.6-0.3 0.4 0 0.6 0.3 0.2 0.2 0.2 0.5 0 0.3-0.2 0.5-0.2 0.2-0.6 0.2-0.4 0-0.6-0.2-0.2-0.2-0.2-0.5zm6.7 8.9q0.7 0 1.2-0.5 0.5-0.4 0.6-1h1.3q-0.1 0.6-0.5 1.2-0.4 0.6-1.1 1-0.7 0.3-1.5 0.3-1.6 0-2.5-1-1-1.1-1-2.9v-0.2q0-1.2 0.4-2 0.4-0.9 1.2-1.4 0.8-0.5 1.9-0.5 1.3 0 2.1 0.8 0.9 0.8 1 2h-1.3q-0.1-0.7-0.6-1.2-0.5-0.5-1.2-0.5-1 0-1.6 0.7-0.6 0.8-0.6 2.1v0.3q0 1.3 0.6 2 0.5 0.8 1.6 0.8zm7.8 1q-1.6 0-2.6-1-1-1-1-2.8v-0.2q0-1.2 0.4-2.1 0.5-0.9 1.3-1.4 0.8-0.5 1.7-0.5 1.5 0 2.3 1 0.9 1 0.9 2.8v0.6h-5.3q0.1 1.2 0.7 1.9 0.6 0.7 1.6 0.7 0.7 0 1.2-0.3 0.5-0.3 0.9-0.8l0.8 0.6q-1 1.5-2.9 1.5zm-0.2-6.9q-0.8 0-1.4 0.6-0.5 0.6-0.6 1.6h3.8v-0.1q0-1-0.5-1.5-0.5-0.6-1.3-0.6zm9.2 4.7q0-0.5-0.4-0.8-0.4-0.3-1.4-0.5-1-0.2-1.6-0.5-0.6-0.3-0.9-0.7-0.3-0.5-0.3-1 0-1 0.8-1.6 0.9-0.7 2.1-0.7 1.3 0 2.1 0.7 0.9 0.7 0.9 1.7h-1.4q0-0.5-0.4-0.9-0.5-0.4-1.2-0.4-0.7 0-1.1 0.3-0.4 0.3-0.4 0.8 0 0.5 0.3 0.8 0.4 0.2 1.4 0.4 1 0.2 1.6 0.6 0.6 0.3 0.9 0.7 0.3 0.4 0.3 1.1 0 1-0.8 1.6-0.8 0.6-2.2 0.6-0.9 0-1.6-0.3-0.7-0.3-1.1-0.9-0.4-0.6-0.4-1.3h1.3q0 0.7 0.5 1.1 0.5 0.4 1.3 0.4 0.8 0 1.2-0.3 0.5-0.4 0.5-0.9z"/><path fill-rule="evenodd" class="l" d="m647.3 108.7h127.5v31.5h-127.5z"/><path class="c" d="m647.3 108.7h127.5v31.5h-127.5z"/><path fill-rule="evenodd" d="m675.3 119.1v7.1q0 1.5-0.9 2.4-0.9 0.9-2.5 1l-0.4 0.1q-1.7 0-2.7-1-1-0.9-1-2.5v-7.1h1.3v7.1q0 1.1 0.7 1.7 0.6 0.6 1.7 0.6 1.2 0 1.8-0.6 0.6-0.6 0.6-1.7v-7.1zm6.5 8.4q0-0.6-0.4-0.9-0.4-0.3-1.4-0.5-1-0.2-1.6-0.5-0.6-0.3-0.9-0.7-0.3-0.4-0.3-1 0-0.9 0.8-1.6 0.8-0.7 2.1-0.7 1.3 0 2.1 0.7 0.8 0.7 0.8 1.7h-1.3q0-0.5-0.4-0.9-0.5-0.4-1.2-0.4-0.7 0-1.1 0.3-0.5 0.3-0.5 0.9 0 0.4 0.4 0.7 0.4 0.2 1.4 0.4 1 0.3 1.6 0.6 0.6 0.3 0.9 0.7 0.3 0.4 0.3 1.1 0 1-0.8 1.6-0.8 0.7-2.2 0.7-0.9 0-1.6-0.4-0.7-0.3-1.1-0.9-0.4-0.6-0.4-1.3h1.3q0 0.7 0.5 1.1 0.5 0.4 1.3 0.4 0.8 0 1.2-0.3 0.5-0.3 0.5-0.8zm6.3 2.2q-1.6 0-2.6-1.1-1-1-1-2.7v-0.3q0-1.1 0.4-2 0.5-0.9 1.3-1.5 0.8-0.5 1.7-0.5 1.5 0 2.3 1 0.9 1 0.9 2.9v0.5h-5.3q0.1 1.2 0.7 1.9 0.6 0.7 1.6 0.7 0.7 0 1.2-0.3 0.5-0.3 0.9-0.8l0.8 0.7q-1 1.5-2.9 1.5zm-0.2-7q-0.8 0-1.4 0.6-0.5 0.6-0.6 1.6h3.8v-0.1q0-1-0.5-1.5-0.5-0.6-1.3-0.6zm8.5 0.3q-0.4-0.1-0.7-0.1-1.3 0-1.8 1.1v5.5h-1.3v-7.7h1.3v0.9q0.7-1.1 1.9-1.1 0.4 0 0.6 0.1zm5.7 4.5q0-0.5-0.4-0.8-0.4-0.3-1.4-0.5-1-0.2-1.6-0.5-0.6-0.3-0.9-0.7-0.3-0.5-0.3-1 0-1 0.8-1.6 0.8-0.7 2.1-0.7 1.3 0 2.1 0.7 0.8 0.7 0.8 1.7h-1.3q0-0.5-0.5-0.9-0.4-0.4-1.1-0.4-0.8 0-1.2 0.3-0.4 0.3-0.4 0.8 0 0.5 0.4 0.8 0.4 0.2 1.4 0.4 1 0.2 1.6 0.6 0.6 0.3 0.9 0.7 0.3 0.4 0.3 1.1 0 1-0.8 1.6-0.9 0.6-2.2 0.6-0.9 0-1.6-0.3-0.8-0.3-1.2-0.9-0.3-0.6-0.3-1.3h1.3q0 0.7 0.5 1.1 0.5 0.4 1.3 0.4 0.8 0 1.2-0.3 0.5-0.4 0.5-0.9zm9.9-2.5q-1.7-0.6-2.5-1.3-0.8-0.7-0.8-1.8 0-1.3 0.9-2.1 1-0.8 2.6-0.8 1.1 0 1.9 0.5 0.9 0.4 1.3 1.1 0.5 0.7 0.5 1.6h-1.4q0-0.9-0.6-1.5-0.6-0.5-1.7-0.5-1 0-1.6 0.4-0.6 0.5-0.6 1.2 0 0.7 0.6 1.1 0.5 0.5 1.8 0.8 1.3 0.4 2.1 0.8 0.7 0.5 1 1.1 0.4 0.6 0.4 1.4 0 1.2-1 2-1 0.7-2.6 0.7-1.1 0-2.1-0.4-0.9-0.4-1.4-1.1-0.5-0.7-0.5-1.6h1.4q0 0.9 0.7 1.5 0.7 0.5 1.9 0.5 1.1 0 1.6-0.4 0.6-0.5 0.6-1.2 0-0.8-0.5-1.2-0.6-0.4-2-0.8zm8.7 4.7q-1.6 0-2.6-1-1-1-1-2.8v-0.2q0-1.2 0.5-2.1 0.4-0.9 1.2-1.4 0.8-0.5 1.7-0.5 1.5 0 2.3 1 0.9 1 0.9 2.8v0.6h-5.3q0.1 1.2 0.7 1.9 0.6 0.7 1.6 0.7 0.7 0 1.2-0.3 0.5-0.3 0.9-0.8l0.8 0.6q-1 1.5-2.9 1.5zm-0.2-6.9q-0.8 0-1.4 0.6-0.5 0.6-0.6 1.6h3.8v-0.1q0-1-0.5-1.5-0.5-0.6-1.3-0.6zm8.5 0.2q-0.4 0-0.7 0-1.3 0-1.8 1.1v5.5h-1.3v-7.8h1.3v1q0.7-1.1 1.9-1.1 0.4 0 0.6 0.1zm3.9 4.8l1.9-6h1.3l-2.8 7.8h-1l-2.8-7.8h1.4zm6 1.8h-1.4v-7.7h1.4zm-1.5-9.8q0-0.4 0.2-0.6 0.2-0.2 0.6-0.2 0.4 0 0.6 0.2 0.2 0.2 0.2 0.6 0 0.3-0.2 0.5-0.2 0.2-0.6 0.2-0.4 0-0.6-0.2-0.2-0.2-0.2-0.5zm6.7 8.8q0.7 0 1.2-0.4 0.6-0.4 0.6-1.1h1.3q-0.1 0.7-0.5 1.3-0.4 0.6-1.1 1-0.7 0.3-1.5 0.3-1.6 0-2.5-1-1-1.1-1-2.9v-0.2q0-1.2 0.4-2.1 0.5-0.8 1.2-1.3 0.8-0.5 1.9-0.5 1.3 0 2.1 0.8 0.9 0.7 1 2h-1.3q0-0.8-0.6-1.2-0.5-0.5-1.2-0.5-1 0-1.6 0.7-0.5 0.7-0.5 2.1v0.3q0 1.3 0.5 2 0.6 0.7 1.6 0.7zm7.8 1.1q-1.6 0-2.6-1-1-1-1-2.8v-0.2q0-1.2 0.5-2.1 0.4-0.9 1.2-1.4 0.8-0.5 1.7-0.5 1.5 0 2.3 1 0.9 1 0.9 2.8v0.6h-5.3q0.1 1.1 0.7 1.8 0.7 0.7 1.6 0.7 0.7 0 1.2-0.2 0.5-0.3 0.9-0.8l0.8 0.6q-1 1.5-2.9 1.5zm-0.2-6.9q-0.8 0-1.3 0.6-0.6 0.5-0.7 1.6h3.9v-0.1q-0.1-1-0.6-1.6-0.5-0.5-1.3-0.5z"/><path fill-rule="evenodd" class="l" d="m647.3 149.5h127.5v31.6h-127.5z"/><path class="c" d="m647.3 149.5h127.5v31.6h-127.5z"/><path fill-rule="evenodd" d="m661.2 166.3v4.1h-1.4v-10.4h3.8q1.8 0 2.7 0.8 1 0.9 1 2.3 0 1.6-1 2.4-0.9 0.8-2.7 0.8zm0-1.1h2.5q1.1 0 1.7-0.5 0.6-0.6 0.6-1.5 0-1-0.6-1.5-0.6-0.6-1.6-0.6h-2.6zm11.4-1.4q-0.3 0-0.6 0-1.3 0-1.8 1.1v5.5h-1.3v-7.8h1.3v1q0.7-1.1 1.8-1.1 0.4 0 0.6 0.1zm0.8 2.6q0-1.1 0.4-2 0.5-0.9 1.2-1.4 0.8-0.5 1.9-0.5 1.6 0 2.5 1.1 1 1.1 1 2.9v0.1q0 1.1-0.4 2-0.5 0.9-1.3 1.4-0.8 0.5-1.8 0.5-1.6 0-2.6-1.1-0.9-1.1-0.9-2.9zm1.3 0.2q0 1.3 0.6 2.1 0.6 0.7 1.6 0.7 1 0 1.6-0.7 0.6-0.8 0.6-2.3 0-1.2-0.6-2-0.6-0.8-1.6-0.8-1 0-1.6 0.8-0.6 0.7-0.6 2.2zm8.7-4v8.7q0 2.2-2 2.2-0.4 0-0.8-0.1v-1.1q0.2 0.1 0.6 0.1 0.4 0 0.7-0.3 0.2-0.2 0.2-0.8v-8.7zm-1.5-2q0-0.3 0.2-0.6 0.2-0.2 0.6-0.2 0.4 0 0.6 0.2 0.2 0.2 0.2 0.6 0 0.3-0.2 0.5-0.2 0.2-0.6 0.2-0.4 0-0.6-0.2-0.2-0.2-0.2-0.5zm6.9 9.9q-1.6 0-2.6-1-1-1-1-2.8v-0.2q0-1.2 0.4-2.1 0.5-0.9 1.3-1.4 0.8-0.5 1.7-0.5 1.5 0 2.3 1 0.9 1 0.9 2.8v0.6h-5.3q0 1.1 0.7 1.8 0.6 0.7 1.6 0.7 0.7 0 1.2-0.2 0.5-0.3 0.9-0.8l0.8 0.6q-1 1.5-2.9 1.5zm-0.2-6.9q-0.8 0-1.4 0.6-0.5 0.5-0.6 1.6h3.8v-0.1q0-1-0.5-1.6-0.5-0.5-1.3-0.5zm7.8 5.8q0.7 0 1.2-0.4 0.6-0.4 0.6-1.1h1.3q0 0.7-0.5 1.3-0.4 0.6-1.1 1-0.7 0.3-1.5 0.3-1.6 0-2.5-1-0.9-1.1-0.9-2.9v-0.2q0-1.2 0.4-2.1 0.4-0.8 1.2-1.3 0.7-0.5 1.8-0.5 1.3 0 2.2 0.8 0.8 0.7 0.9 2h-1.3q0-0.8-0.5-1.2-0.5-0.5-1.3-0.5-1 0-1.6 0.7-0.5 0.7-0.5 2.1v0.3q0 1.3 0.5 2 0.6 0.7 1.6 0.7zm6.4-8.7v1.9h1.4v1.1h-1.4v4.8q0 0.4 0.2 0.7 0.2 0.2 0.6 0.2 0.2 0 0.7-0.1v1.1q-0.6 0.1-1.1 0.1-0.9 0-1.3-0.5-0.5-0.6-0.5-1.5v-4.8h-1.4v-1.1h1.4v-1.9zm7.5 7.6q0-0.5-0.4-0.8-0.4-0.3-1.4-0.5-1-0.2-1.6-0.5-0.6-0.3-0.9-0.8-0.2-0.4-0.2-1 0-0.9 0.8-1.5 0.8-0.7 2-0.7 1.4 0 2.2 0.7 0.8 0.6 0.8 1.7h-1.3q0-0.5-0.5-0.9-0.5-0.4-1.2-0.4-0.7 0-1.1 0.3-0.4 0.3-0.4 0.8 0 0.5 0.4 0.7 0.4 0.3 1.3 0.5 1 0.2 1.7 0.5 0.6 0.3 0.9 0.8 0.3 0.4 0.3 1 0 1.1-0.9 1.7-0.8 0.6-2.1 0.6-0.9 0-1.7-0.3-0.7-0.3-1.1-0.9-0.4-0.6-0.4-1.3h1.3q0.1 0.7 0.6 1 0.5 0.4 1.3 0.4 0.7 0 1.2-0.3 0.4-0.3 0.4-0.8zm10-2.6q-1.8-0.5-2.6-1.2-0.8-0.8-0.8-1.8 0-1.3 1-2.1 1-0.8 2.6-0.8 1 0 1.9 0.4 0.8 0.4 1.3 1.2 0.4 0.7 0.4 1.6h-1.4q0-1-0.6-1.5-0.6-0.6-1.6-0.6-1.1 0-1.6 0.5-0.6 0.4-0.6 1.2 0 0.7 0.5 1.1 0.6 0.5 1.9 0.8 1.3 0.4 2 0.8 0.8 0.5 1.1 1.1 0.4 0.5 0.4 1.3 0 1.3-1 2.1-1 0.7-2.7 0.7-1 0-2-0.4-0.9-0.4-1.4-1.1-0.5-0.7-0.5-1.6h1.4q0 0.9 0.7 1.4 0.7 0.6 1.8 0.6 1.1 0 1.7-0.4 0.6-0.5 0.6-1.3 0-0.7-0.6-1.1-0.5-0.5-1.9-0.9zm8.6 4.8q-1.5 0-2.5-1-1-1-1-2.8v-0.2q0-1.2 0.4-2.1 0.5-0.9 1.2-1.4 0.8-0.5 1.8-0.5 1.5 0 2.3 1 0.8 1 0.8 2.8v0.6h-5.2q0 1.1 0.7 1.8 0.6 0.7 1.6 0.7 0.7 0 1.2-0.2 0.5-0.3 0.8-0.8l0.9 0.6q-1 1.5-3 1.5zm-0.1-6.9q-0.8 0-1.4 0.6-0.5 0.5-0.7 1.6h3.9v-0.1q0-1-0.5-1.6-0.5-0.5-1.3-0.5zm8.4 0.2q-0.3 0-0.6 0-1.3 0-1.8 1.1v5.5h-1.3v-7.8h1.3v0.9q0.6-1 1.8-1 0.4 0 0.6 0.1zm3.9 4.8l1.9-6h1.4l-2.8 7.8h-1l-2.8-7.8h1.4zm5.9 1.8h-1.3v-7.7h1.3zm-1.4-9.8q0-0.4 0.2-0.6 0.2-0.2 0.6-0.2 0.4 0 0.6 0.2 0.2 0.2 0.2 0.6 0 0.3-0.2 0.5-0.2 0.2-0.6 0.2-0.4 0-0.6-0.2-0.2-0.2-0.2-0.5zm6.7 8.8q0.7 0 1.2-0.4 0.5-0.4 0.6-1.1h1.2q0 0.7-0.4 1.3-0.4 0.6-1.2 0.9-0.7 0.4-1.4 0.4-1.6 0-2.6-1.1-0.9-1-0.9-2.8v-0.3q0-1.1 0.4-2 0.4-0.9 1.2-1.3 0.8-0.5 1.8-0.5 1.4 0 2.2 0.7 0.9 0.8 0.9 2.1h-1.2q-0.1-0.8-0.6-1.3-0.5-0.4-1.3-0.4-1 0-1.5 0.7-0.6 0.7-0.6 2.1v0.2q0 1.4 0.6 2.1 0.5 0.7 1.6 0.7zm7.7 1.1q-1.5 0-2.5-1-1-1.1-1-2.8v-0.3q0-1.1 0.4-2 0.5-0.9 1.2-1.4 0.8-0.5 1.8-0.5 1.5 0 2.3 1 0.9 1 0.9 2.8v0.6h-5.3q0 1.1 0.7 1.8 0.6 0.7 1.6 0.7 0.7 0 1.2-0.3 0.5-0.3 0.8-0.7l0.9 0.6q-1 1.5-3 1.5zm-0.1-6.9q-0.8 0-1.4 0.5-0.5 0.6-0.6 1.7h3.8v-0.1q0-1-0.5-1.6-0.5-0.5-1.3-0.5z"/><path class="a" d="m641.1 187.6h127.5v34h-127.5z"/><path fill-rule="evenodd" d="m650.1 208.2l3.3-8.6h1.2l3.5 8.6h-1.3l-1-2.6h-3.6l-0.9 2.6zm2.5-3.6h2.9l-0.9-2.3q-0.4-1.1-0.6-1.8-0.2 0.8-0.5 1.6zm6.3 3.6v-6.3h1v0.9q0.7-1 2-1 0.5 0 1 0.2 0.5 0.2 0.7 0.5 0.2 0.4 0.3 0.8 0.1 0.3 0.1 1v3.9h-1.1v-3.8q0-0.7-0.1-1-0.1-0.3-0.4-0.5-0.3-0.2-0.8-0.2-0.6 0-1.1 0.4-0.5 0.5-0.5 1.6v3.5zm10.7 0v-0.8q-0.6 0.9-1.7 0.9-0.8 0-1.4-0.4-0.6-0.4-1-1.2-0.3-0.7-0.3-1.7 0-0.9 0.3-1.6 0.3-0.8 0.9-1.2 0.6-0.4 1.4-0.4 0.6 0 1 0.2 0.4 0.3 0.7 0.6v-3h1.1v8.6zm-3.4-3.2q0 1.2 0.5 1.8 0.5 0.6 1.2 0.6 0.7 0 1.2-0.5 0.5-0.6 0.5-1.8 0-1.2-0.5-1.8-0.5-0.6-1.2-0.6-0.7 0-1.2 0.5-0.5 0.6-0.5 1.8zm9.4 3.2v-6.3h0.9v0.9q0.3-0.5 0.8-0.7 0.5-0.3 1.1-0.3 0.7 0 1.1 0.3 0.5 0.3 0.6 0.8 0.8-1.1 2-1.1 0.9 0 1.4 0.5 0.5 0.5 0.5 1.6v4.3h-1.1v-4q0-0.6-0.1-0.9-0.1-0.3-0.3-0.4-0.3-0.2-0.7-0.2-0.6 0-1.1 0.4-0.4 0.5-0.4 1.4v3.7h-1.1v-4.1q0-0.7-0.2-1-0.3-0.4-0.9-0.4-0.4 0-0.8 0.2-0.4 0.3-0.5 0.7-0.2 0.5-0.2 1.3v3.3zm14.1-0.8q-0.6 0.5-1.2 0.7-0.5 0.2-1.1 0.2-1.1 0-1.6-0.5-0.6-0.5-0.6-1.3 0-0.4 0.2-0.8 0.2-0.4 0.6-0.6 0.3-0.3 0.8-0.4 0.2-0.1 0.9-0.1 1.3-0.2 1.9-0.4 0-0.2 0-0.3 0-0.6-0.3-0.9-0.4-0.3-1.2-0.3-0.8 0-1.1 0.2-0.4 0.3-0.6 0.9l-1-0.1q0.1-0.7 0.5-1.1 0.3-0.4 0.9-0.6 0.6-0.2 1.4-0.2 0.8 0 1.3 0.2 0.5 0.2 0.8 0.4 0.2 0.3 0.3 0.8 0 0.2 0 0.9v1.4q0 1.5 0.1 1.9 0.1 0.4 0.3 0.8h-1.1q-0.2-0.4-0.2-0.8zm-0.1-2.4q-0.6 0.3-1.8 0.4-0.6 0.1-0.9 0.3-0.2 0.1-0.4 0.3-0.1 0.2-0.1 0.5 0 0.4 0.3 0.7 0.3 0.3 0.9 0.3 0.6 0 1.1-0.3 0.5-0.3 0.7-0.7 0.2-0.4 0.2-1.1zm2.7 3.1v-6.2h0.9v0.9q0.7-1 2-1 0.6 0 1 0.2 0.5 0.2 0.7 0.5 0.3 0.3 0.4 0.8 0 0.3 0 1v3.8h-1v-3.7q0-0.7-0.2-1-0.1-0.3-0.4-0.5-0.3-0.2-0.7-0.2-0.7 0-1.2 0.4-0.5 0.4-0.5 1.6v3.4zm6.6 2.4l-0.1-1q0.4 0.1 0.6 0.1 0.4 0 0.6-0.1 0.2-0.1 0.3-0.3 0.1-0.2 0.4-0.8 0-0.1 0.1-0.2l-2.4-6.3h1.1l1.3 3.6q0.3 0.7 0.5 1.5 0.2-0.8 0.4-1.5l1.3-3.6h1.1l-2.4 6.4q-0.4 1-0.6 1.4-0.3 0.5-0.6 0.7-0.4 0.3-0.9 0.3-0.3 0-0.7-0.2zm9.4-2.4v-6.2h1v0.9q0.3-0.5 0.7-0.7 0.5-0.3 1.2-0.3 0.6 0 1.1 0.3 0.4 0.2 0.6 0.8 0.8-1.1 1.9-1.1 1 0 1.4 0.5 0.5 0.5 0.5 1.6v4.2h-1v-3.9q0-0.6-0.1-0.9-0.1-0.3-0.4-0.4-0.2-0.2-0.6-0.2-0.7 0-1.1 0.4-0.4 0.5-0.4 1.4v3.6h-1.1v-4q0-0.7-0.3-1.1-0.2-0.3-0.8-0.3-0.4 0-0.8 0.2-0.4 0.3-0.6 0.7-0.1 0.5-0.1 1.3v3.2zm9.6-3.1q0-1.7 0.9-2.5 0.8-0.7 2-0.7 1.3 0 2.1 0.8 0.8 0.9 0.8 2.3 0 1.2-0.4 1.9-0.3 0.7-1 1.1-0.7 0.4-1.5 0.4-1.3 0-2.1-0.8-0.8-0.9-0.8-2.5zm1.1 0q0 1.2 0.5 1.8 0.5 0.6 1.3 0.6 0.8 0 1.3-0.6 0.5-0.6 0.5-1.8 0-1.2-0.5-1.7-0.5-0.6-1.3-0.6-0.8 0-1.3 0.6-0.5 0.5-0.5 1.7zm5.9 3.1v-6.2h1v1q0.3-0.7 0.6-0.9 0.3-0.2 0.7-0.2 0.6 0 1.1 0.3l-0.4 1q-0.4-0.2-0.7-0.2-0.4 0-0.7 0.2-0.2 0.2-0.3 0.6-0.2 0.5-0.2 1.2v3.2zm8.2-2l1.1 0.2q-0.2 0.9-0.9 1.5-0.7 0.5-1.8 0.5-1.4 0-2.2-0.9-0.8-0.8-0.8-2.3 0-1.6 0.8-2.4 0.8-0.9 2.1-0.9 1.3 0 2.1 0.8 0.8 0.9 0.8 2.4 0 0.1 0 0.3h-4.7q0.1 1 0.6 1.6 0.5 0.5 1.3 0.5 0.6 0 1-0.3 0.4-0.3 0.6-1zm-3.4-1.7h3.4q0-0.8-0.3-1.1-0.6-0.7-1.4-0.7-0.7 0-1.2 0.5-0.5 0.5-0.5 1.3zm6.5 3.7v-1.2h1.2v1.2zm4 0v-1.2h1.2v1.2zm4 0v-1.2h1.2v1.2z"/><path class="a" d="m52.8 185.2h60.2v37.2h-60.2z"/><path fill-rule="evenodd" class="m" d="m69.9 197.8h1.3v6.1q0 1.6-0.3 2.5-0.4 0.9-1.3 1.5-0.9 0.6-2.5 0.6-1.4 0-2.4-0.5-0.9-0.5-1.3-1.5-0.4-1-0.4-2.6v-6.1h1.4v6.1q0 1.3 0.2 2 0.3 0.6 0.9 1 0.6 0.3 1.5 0.3 1.6 0 2.2-0.7 0.7-0.7 0.7-2.6zm3 8.2l1.2-0.2q0.2 0.8 0.6 1.2 0.5 0.4 1.4 0.4 0.9 0 1.3-0.4 0.5-0.4 0.5-0.8 0-0.5-0.4-0.7-0.3-0.2-1.3-0.5-1.4-0.3-2-0.6-0.5-0.2-0.8-0.7-0.3-0.5-0.3-1 0-0.5 0.2-1 0.2-0.4 0.7-0.7 0.3-0.2 0.8-0.4 0.5-0.1 1.1-0.1 0.9 0 1.6 0.3 0.6 0.2 1 0.6 0.3 0.5 0.4 1.2l-1.3 0.2q-0.1-0.6-0.5-0.9-0.4-0.4-1.1-0.4-0.9 0-1.3 0.3-0.4 0.3-0.4 0.7 0 0.3 0.2 0.5 0.1 0.2 0.5 0.3 0.2 0.1 1.1 0.3 1.4 0.4 1.9 0.6 0.6 0.3 0.9 0.7 0.3 0.5 0.3 1.1 0 0.7-0.4 1.2-0.4 0.6-1.1 0.9-0.7 0.3-1.6 0.3-1.5 0-2.2-0.6-0.8-0.6-1-1.8zm13-0.2l1.4 0.2q-0.4 1.1-1.2 1.8-0.9 0.6-2.2 0.6-1.7 0-2.6-1-1-1-1-2.9 0-1.9 1-2.9 1-1.1 2.5-1.1 1.6 0 2.5 1 1 1.1 1 2.9 0 0.2 0 0.4h-5.7q0.1 1.2 0.7 1.9 0.7 0.7 1.6 0.7 0.7 0 1.2-0.4 0.5-0.4 0.8-1.2zm-4.2-2.1h4.2q-0.1-0.9-0.4-1.4-0.7-0.8-1.7-0.8-0.8 0-1.4 0.6-0.6 0.6-0.7 1.6zm7.2 4.6v-7.6h1.1v1.1q0.5-0.8 0.8-1 0.4-0.3 0.9-0.3 0.6 0 1.3 0.4l-0.5 1.2q-0.4-0.3-0.9-0.3-0.4 0-0.8 0.3-0.3 0.2-0.4 0.7-0.3 0.7-0.3 1.5v4z"/><path class="a" d="m790 151h48.4"/><path class="f" d="m796 151h36.4"/><path fill-rule="evenodd" class="g" d="m796 152.7l-4.5-1.7 4.5-1.6z"/><path fill-rule="evenodd" class="g" d="m832.4 149.4l4.6 1.6-4.6 1.7z"/><path fill-rule="evenodd" class="n" d="m838.4 108.9c0 5.2 17.1 9.5 38.1 9.5 21 0 38.1-4.3 38.1-9.5v84.3c0 5.2-17.1 9.5-38.1 9.5-21 0-38.1-4.3-38.1-9.5z"/><path fill-rule="evenodd" class="o" d="m838.4 108.9c0-5.3 17.1-9.6 38.1-9.6 21 0 38.1 4.3 38.1 9.6 0 5.2-17.1 9.5-38.1 9.5-21 0-38.1-4.3-38.1-9.5z"/><path class="a" d="m914.6 108.9c0 5.2-17.1 9.5-38.1 9.5-21 0-38.1-4.3-38.1-9.5 0-5.3 17.1-9.6 38.1-9.6 21 0 38.1 4.3 38.1 9.6v84.3c0 5.2-17.1 9.5-38.1 9.5-21 0-38.1-4.3-38.1-9.5v-84.3"/><path class="c" d="m914.6 108.9c0 5.2-17.1 9.5-38.1 9.5-21 0-38.1-4.3-38.1-9.5 0-5.3 17.1-9.6 38.1-9.6 21 0 38.1 4.3 38.1 9.6v84.3c0 5.2-17.1 9.5-38.1 9.5-21 0-38.1-4.3-38.1-9.5v-84.3"/><path fill-rule="evenodd" d="m851.7 160.3v-8.6h3q1 0 1.5 0.1 0.8 0.2 1.3 0.6 0.7 0.6 1 1.5 0.4 0.9 0.4 2.1 0 0.9-0.3 1.7-0.2 0.7-0.6 1.2-0.3 0.5-0.8 0.8-0.4 0.3-1 0.5-0.6 0.1-1.3 0.1zm1.1-1h1.8q0.9 0 1.4-0.2 0.5-0.1 0.7-0.4 0.4-0.4 0.7-1.1 0.2-0.7 0.2-1.7 0-1.3-0.5-2-0.4-0.8-1-1-0.5-0.2-1.5-0.2h-1.8zm11.5 0.3q-0.6 0.5-1.2 0.7-0.5 0.2-1.1 0.2-1.1 0-1.6-0.5-0.6-0.5-0.6-1.3 0-0.5 0.2-0.8 0.2-0.4 0.6-0.6 0.3-0.3 0.8-0.4 0.3-0.1 0.9-0.2 1.3-0.1 1.9-0.3 0-0.2 0-0.3 0-0.6-0.3-0.9-0.4-0.4-1.2-0.4-0.8 0-1.1 0.3-0.4 0.3-0.6 0.9l-1-0.1q0.2-0.7 0.5-1.1 0.3-0.4 0.9-0.6 0.6-0.2 1.4-0.2 0.8 0 1.3 0.2 0.5 0.1 0.8 0.4 0.2 0.3 0.3 0.7 0 0.3 0 1v1.4q0 1.5 0.1 1.9 0.1 0.4 0.3 0.7h-1.1q-0.2-0.3-0.2-0.7zm-0.1-2.4q-0.6 0.2-1.8 0.4-0.6 0.1-0.9 0.2-0.2 0.1-0.4 0.4-0.1 0.2-0.1 0.5 0 0.4 0.3 0.7 0.3 0.2 0.9 0.2 0.6 0 1.1-0.2 0.5-0.3 0.7-0.8 0.2-0.3 0.2-1zm5 2.2l0.1 0.9q-0.4 0.1-0.8 0.1-0.6 0-0.9-0.2-0.3-0.2-0.4-0.5-0.1-0.3-0.1-1.2v-3.6h-0.8v-0.8h0.8v-1.5l1-0.7v2.2h1.1v0.8h-1.1v3.7q0 0.4 0.1 0.5 0 0.2 0.1 0.2 0.2 0.1 0.4 0.1 0.2 0 0.5 0zm5.1 0.2q-0.6 0.5-1.2 0.7-0.5 0.2-1.1 0.2-1.1 0-1.6-0.5-0.6-0.5-0.6-1.3 0-0.5 0.2-0.8 0.3-0.4 0.6-0.7 0.3-0.2 0.8-0.3 0.3-0.1 0.9-0.2 1.3-0.1 1.9-0.3 0-0.2 0-0.3 0-0.7-0.3-0.9-0.4-0.4-1.2-0.4-0.8 0-1.1 0.3-0.4 0.3-0.6 0.9l-1-0.1q0.2-0.7 0.5-1.1 0.3-0.4 0.9-0.6 0.6-0.2 1.4-0.2 0.8 0 1.3 0.2 0.5 0.1 0.8 0.4 0.2 0.3 0.3 0.7 0 0.3 0 1v1.4q0 1.5 0.1 1.9 0.1 0.4 0.3 0.7h-1.1q-0.2-0.3-0.2-0.7zm-0.1-2.4q-0.6 0.2-1.7 0.4-0.7 0.1-1 0.2-0.2 0.1-0.4 0.4-0.1 0.2-0.1 0.5 0 0.4 0.3 0.7 0.3 0.2 0.9 0.2 0.6 0 1.1-0.2 0.5-0.3 0.7-0.8 0.2-0.3 0.2-1zm3.6 3.1h-0.9v-8.6h1v3.1q0.7-0.8 1.7-0.8 0.6 0 1.1 0.2 0.5 0.2 0.9 0.6 0.3 0.5 0.5 1 0.2 0.6 0.2 1.3 0 1.6-0.8 2.5-0.8 0.9-1.9 0.9-1.1 0-1.8-1zm0-3.1q0 1.1 0.3 1.6 0.5 0.8 1.4 0.8 0.7 0 1.2-0.6 0.5-0.6 0.5-1.8 0-1.2-0.5-1.8-0.5-0.6-1.2-0.6-0.7 0-1.2 0.6-0.5 0.6-0.5 1.8zm9.8 2.4q-0.6 0.5-1.1 0.7-0.6 0.2-1.2 0.2-1 0-1.6-0.5-0.5-0.5-0.5-1.3 0-0.5 0.2-0.8 0.2-0.4 0.5-0.6 0.4-0.3 0.8-0.4 0.3-0.1 0.9-0.2 1.3-0.1 1.9-0.3 0-0.2 0-0.3 0-0.6-0.3-0.9-0.4-0.4-1.2-0.4-0.7 0-1.1 0.3-0.3 0.3-0.5 0.9l-1-0.1q0.1-0.7 0.4-1.1 0.4-0.4 1-0.6 0.6-0.2 1.4-0.2 0.8 0 1.3 0.2 0.5 0.1 0.7 0.4 0.2 0.3 0.3 0.7 0.1 0.3 0.1 1v1.4q0 1.5 0 1.9 0.1 0.4 0.3 0.7h-1.1q-0.1-0.3-0.2-0.7zm-0.1-2.4q-0.6 0.2-1.7 0.4-0.7 0.1-0.9 0.2-0.3 0.1-0.4 0.4-0.2 0.2-0.2 0.5 0 0.4 0.3 0.7 0.4 0.2 1 0.2 0.6 0 1-0.2 0.5-0.3 0.7-0.8 0.2-0.3 0.2-1zm2.3 1.3l1-0.2q0.1 0.6 0.5 1 0.4 0.3 1.2 0.3 0.7 0 1-0.3 0.4-0.3 0.4-0.7 0-0.4-0.3-0.6-0.2-0.1-1.1-0.3-1.2-0.3-1.6-0.5-0.5-0.2-0.7-0.6-0.2-0.4-0.2-0.9 0-0.4 0.2-0.7 0.2-0.4 0.5-0.6 0.2-0.2 0.7-0.3 0.4-0.1 0.9-0.1 0.7 0 1.2 0.2 0.6 0.2 0.9 0.5 0.2 0.4 0.3 1l-1 0.1q-0.1-0.4-0.4-0.7-0.3-0.3-1-0.3-0.7 0-1 0.3-0.3 0.2-0.3 0.5 0 0.2 0.1 0.4 0.2 0.2 0.4 0.3 0.2 0 1 0.2 1.1 0.4 1.5 0.5 0.5 0.2 0.7 0.6 0.3 0.3 0.3 0.9 0 0.5-0.4 1-0.2 0.4-0.8 0.7-0.6 0.3-1.3 0.3-1.3 0-1.9-0.5-0.6-0.6-0.8-1.5zm10.7-0.2l1.1 0.1q-0.3 1-1 1.5-0.7 0.6-1.8 0.6-1.3 0-2.1-0.9-0.8-0.8-0.8-2.3 0-1.6 0.8-2.5 0.8-0.8 2.1-0.8 1.2 0 2 0.8 0.8 0.9 0.8 2.4 0 0.1 0 0.3h-4.6q0 1 0.5 1.6 0.6 0.5 1.3 0.5 0.6 0 1-0.3 0.4-0.3 0.7-1zm-3.5-1.7h3.5q-0.1-0.8-0.4-1.2-0.5-0.6-1.3-0.6-0.7 0-1.2 0.5-0.5 0.5-0.6 1.3z"/><path fill-rule="evenodd" class="l" d="m630.6 1.1h164.1v31.6h-164.1z"/><path class="j" d="m630.6 1.1h164.1v31.6h-164.1z"/><path fill-rule="evenodd" d="m691.4 11.6l3.5 8.5 3.4-8.5h1.7v10.4h-1.3v-4.1l0.1-4.4-3.4 8.5h-1.1l-3.4-8.4 0.1 4.3v4.1h-1.3v-10.4zm10.4 6.4q0-1.1 0.5-2 0.4-0.9 1.2-1.4 0.8-0.5 1.9-0.5 1.5 0 2.5 1.1 1 1.1 1 2.9v0.1q0 1.1-0.5 2-0.4 0.9-1.2 1.4-0.8 0.5-1.8 0.5-1.6 0-2.6-1.1-1-1.1-1-2.9zm1.4 0.2q0 1.3 0.6 2 0.6 0.8 1.6 0.8 1 0 1.6-0.8 0.6-0.7 0.6-2.2 0-1.3-0.7-2-0.5-0.8-1.5-0.8-1 0-1.6 0.8-0.6 0.7-0.6 2.2zm7-0.2q0-1.8 0.9-2.8 0.8-1.1 2.2-1.1 1.3 0 2.1 0.9v-4h1.4v11h-1.3v-0.9q-0.8 1-2.2 1-1.4 0-2.2-1.1-0.9-1.1-0.9-2.9zm1.3 0.2q0 1.3 0.6 2.1 0.5 0.7 1.5 0.7 1.3 0 1.8-1.1v-3.6q-0.6-1.1-1.8-1.1-1 0-1.5 0.8-0.6 0.7-0.6 2.2zm10.5 3.9q-1.6 0-2.5-1-1-1-1-2.8v-0.2q0-1.2 0.4-2.1 0.5-0.9 1.2-1.4 0.8-0.5 1.8-0.5 1.5 0 2.3 1 0.8 1 0.8 2.8v0.6h-5.2q0 1.1 0.7 1.8 0.6 0.7 1.6 0.7 0.7 0 1.2-0.2 0.5-0.3 0.8-0.8l0.8 0.6q-0.9 1.5-2.9 1.5zm-0.1-6.9q-0.8 0-1.4 0.6-0.5 0.6-0.7 1.6h3.9v-0.1q0-1-0.5-1.6-0.5-0.5-1.3-0.5zm6.1 6.8h-1.3v-11h1.3zm6.6-2.1q0-0.5-0.4-0.8-0.4-0.3-1.4-0.5-1-0.2-1.6-0.5-0.6-0.3-0.9-0.7-0.2-0.5-0.2-1 0-1 0.8-1.6 0.8-0.7 2-0.7 1.3 0 2.2 0.7 0.8 0.6 0.8 1.7h-1.3q0-0.5-0.5-0.9-0.5-0.4-1.2-0.4-0.7 0-1.1 0.3-0.4 0.3-0.4 0.8 0 0.5 0.4 0.7 0.4 0.3 1.3 0.5 1 0.2 1.6 0.5 0.7 0.3 1 0.8 0.3 0.4 0.3 1 0 1.1-0.9 1.7-0.8 0.6-2.1 0.6-1 0-1.7-0.3-0.7-0.3-1.1-0.9-0.4-0.6-0.4-1.3h1.3q0.1 0.7 0.6 1 0.5 0.4 1.3 0.4 0.7 0 1.2-0.3 0.4-0.3 0.4-0.8z"/><path class="a" d="m712.6 32.7v38.2"/><path class="f" d="m712.6 38.7v26.2"/><path fill-rule="evenodd" class="g" d="m711 38.7l1.6-4.6 1.7 4.6z"/><path fill-rule="evenodd" class="g" d="m714.3 64.9l-1.7 4.6-1.6-4.6z"/><path class="a" d="m269.9 232.9c0 7.7-6.3 13.9-14 13.9h-79.7c-7.7 0-14 6.3-14 14 0-7.7-6.2-14-14-14h-79.6c-7.7 0-14-6.2-14-13.9z"/><path class="a" d="m269.9 232.9c0 7.7-6.3 13.9-14 13.9h-79.7c-7.7 0-14 6.3-14 14 0-7.7-6.2-14-14-14h-79.6c-7.7 0-14-6.2-14-13.9"/><path class="f" d="m269.9 232.9c0 7.7-6.3 13.9-14 13.9h-79.7c-7.7 0-14 6.3-14 14 0-7.7-6.2-14-14-14h-79.6c-7.7 0-14-6.2-14-13.9"/><path class="a" d="m76.6 260.9h172.7v37.1h-172.7z"/><path fill-rule="evenodd" class="m" d="m102.5 283.9v-10.4h4q1 0 1.6 0 0.8 0.2 1.3 0.5 0.5 0.4 0.8 1 0.3 0.7 0.3 1.5 0 1.3-0.8 2.2-0.9 1-3.1 1h-2.7v4.2zm1.4-5.5h2.7q1.4 0 1.9-0.5 0.6-0.5 0.6-1.4 0-0.6-0.3-1.1-0.4-0.5-0.9-0.6-0.4-0.1-1.3-0.1h-2.7zm8.2 5.5v-7.6h1.2v1.1q0.4-0.8 0.8-1 0.4-0.3 0.8-0.3 0.7 0 1.3 0.4l-0.4 1.2q-0.5-0.3-0.9-0.3-0.5 0-0.8 0.3-0.3 0.2-0.5 0.7-0.2 0.7-0.2 1.5v4zm10.1-2.5l1.3 0.2q-0.3 1.2-1.1 1.8-0.9 0.7-2.2 0.7-1.7 0-2.7-1.1-0.9-1-0.9-2.8 0-2 0.9-3 1-1.1 2.6-1.1 1.5 0 2.5 1.1 1 1 1 2.9 0 0.1 0 0.3h-5.7q0.1 1.3 0.7 1.9 0.6 0.7 1.6 0.7 0.7 0 1.2-0.4 0.5-0.3 0.8-1.2zm-4.2-2h4.2q-0.1-1-0.5-1.5-0.6-0.7-1.6-0.7-0.9 0-1.5 0.6-0.6 0.6-0.6 1.6zm6.6 2.2l1.3-0.2q0.1 0.8 0.6 1.2 0.5 0.4 1.4 0.4 0.9 0 1.3-0.4 0.4-0.3 0.4-0.8 0-0.4-0.4-0.7-0.2-0.2-1.3-0.4-1.4-0.4-1.9-0.6-0.6-0.3-0.9-0.8-0.2-0.4-0.2-1 0-0.5 0.2-0.9 0.2-0.5 0.6-0.8 0.3-0.2 0.8-0.3 0.6-0.2 1.1-0.2 0.9 0 1.6 0.3 0.7 0.2 1 0.7 0.3 0.4 0.4 1.1l-1.2 0.2q-0.1-0.6-0.5-0.9-0.4-0.3-1.2-0.3-0.8 0-1.2 0.3-0.4 0.3-0.4 0.7 0 0.2 0.1 0.4 0.2 0.2 0.5 0.3 0.2 0.1 1.2 0.4 1.3 0.3 1.9 0.6 0.5 0.2 0.8 0.7 0.3 0.4 0.3 1.1 0 0.6-0.3 1.2-0.4 0.5-1.1 0.8-0.7 0.4-1.6 0.4-1.5 0-2.3-0.7-0.7-0.6-1-1.8zm13.1-0.2l1.3 0.2q-0.3 1.2-1.2 1.8-0.8 0.7-2.1 0.7-1.7 0-2.7-1.1-1-1-1-2.8 0-2 1-3 1-1.1 2.6-1.1 1.5 0 2.5 1.1 1 1 1 2.9 0 0.1-0.1 0.3h-5.6q0 1.3 0.7 1.9 0.6 0.7 1.6 0.7 0.7 0 1.2-0.4 0.5-0.3 0.8-1.2zm-4.3-2h4.3q-0.1-1-0.5-1.5-0.6-0.7-1.6-0.7-0.9 0-1.5 0.6-0.6 0.6-0.7 1.6zm7.2 4.5v-7.6h1.2v1.1q0.8-1.3 2.4-1.3 0.7 0 1.3 0.3 0.5 0.2 0.8 0.6 0.3 0.4 0.4 1 0.1 0.3 0.1 1.2v4.7h-1.3v-4.6q0-0.8-0.1-1.2-0.2-0.4-0.6-0.6-0.4-0.3-0.9-0.3-0.8 0-1.4 0.6-0.6 0.5-0.6 1.9v4.2zm11-1.2l0.2 1.2q-0.6 0.1-1 0.1-0.7 0-1.1-0.2-0.4-0.3-0.5-0.6-0.2-0.4-0.2-1.5v-4.4h-1v-1h1v-1.9l1.3-0.8v2.7h1.3v1h-1.3v4.4q0 0.6 0 0.7 0.1 0.2 0.3 0.3 0.1 0.1 0.4 0.1 0.2 0 0.6-0.1zm6.2 0.2q-0.7 0.7-1.4 0.9-0.6 0.3-1.4 0.3-1.3 0-1.9-0.7-0.7-0.6-0.7-1.5 0-0.6 0.2-1 0.3-0.5 0.7-0.8 0.4-0.3 0.9-0.4 0.4-0.1 1.2-0.2 1.5-0.2 2.3-0.4 0-0.3 0-0.4 0-0.8-0.4-1.1-0.5-0.4-1.4-0.4-1 0-1.4 0.3-0.4 0.3-0.6 1.1l-1.3-0.2q0.2-0.7 0.6-1.2 0.4-0.5 1.1-0.8 0.8-0.3 1.7-0.3 1 0 1.6 0.3 0.6 0.2 0.9 0.5 0.3 0.4 0.4 0.9 0.1 0.3 0.1 1.2v1.7q0 1.8 0.1 2.3 0 0.4 0.3 0.9h-1.3q-0.3-0.4-0.3-1zm-0.1-2.8q-0.7 0.3-2.1 0.5-0.8 0.1-1.1 0.2-0.4 0.2-0.6 0.4-0.1 0.3-0.1 0.6 0 0.6 0.4 0.9 0.4 0.3 1.1 0.3 0.7 0 1.3-0.3 0.6-0.3 0.9-0.9 0.2-0.4 0.2-1.3zm6.1 2.7l0.2 1.1q-0.6 0.1-1 0.1-0.7 0-1.1-0.2-0.4-0.2-0.5-0.5-0.2-0.4-0.2-1.6v-4.3h-0.9v-1h0.9v-1.9l1.3-0.8v2.7h1.3v1h-1.3v4.4q0 0.5 0.1 0.7 0 0.2 0.2 0.3 0.1 0 0.4 0 0.2 0 0.6 0zm1.3-7.9v-1.4h1.3v1.4zm0 9.1v-7.6h1.2v7.6zm2.8-3.8q0-2.2 1.2-3.2 1-0.8 2.4-0.8 1.6 0 2.5 1 1 1 1 2.8 0 1.5-0.4 2.4-0.4 0.8-1.3 1.3-0.8 0.4-1.8 0.4-1.6 0-2.6-1-1-1-1-2.9zm1.3 0q0 1.4 0.7 2.1 0.6 0.8 1.6 0.8 1 0 1.6-0.8 0.6-0.7 0.6-2.2 0-1.4-0.6-2.1-0.7-0.7-1.6-0.7-1 0-1.6 0.7-0.7 0.7-0.7 2.2zm7.4 3.8v-7.6h1.1v1q0.9-1.2 2.4-1.2 0.7 0 1.3 0.2 0.6 0.3 0.9 0.7 0.2 0.4 0.4 0.9 0 0.4 0 1.3v4.7h-1.3v-4.7q0-0.8-0.1-1.1-0.2-0.4-0.6-0.7-0.3-0.2-0.8-0.2-0.9 0-1.5 0.5-0.6 0.5-0.6 2v4.2zm12.4 0v-10.5h1.4v9.2h5.1v1.3zm13-1q-0.7 0.6-1.4 0.9-0.6 0.2-1.4 0.2-1.2 0-1.9-0.6-0.7-0.6-0.7-1.5 0-0.6 0.3-1.1 0.2-0.4 0.6-0.7 0.4-0.3 1-0.4 0.3-0.1 1.1-0.2 1.6-0.2 2.3-0.5 0-0.2 0-0.3 0-0.8-0.4-1.1-0.4-0.4-1.4-0.4-0.9 0-1.4 0.3-0.4 0.3-0.6 1.1l-1.3-0.2q0.2-0.8 0.6-1.3 0.4-0.5 1.1-0.7 0.8-0.3 1.8-0.3 0.9 0 1.6 0.2 0.6 0.2 0.8 0.6 0.3 0.3 0.5 0.9 0 0.3 0 1.1v1.8q0 1.8 0.1 2.2 0.1 0.5 0.3 1h-1.3q-0.2-0.5-0.3-1zm-0.1-2.9q-0.7 0.3-2.1 0.5-0.8 0.1-1.1 0.3-0.3 0.1-0.5 0.4-0.2 0.3-0.2 0.6 0 0.5 0.4 0.9 0.4 0.3 1.1 0.3 0.8 0 1.3-0.3 0.6-0.3 0.9-0.9 0.2-0.4 0.2-1.3zm3.2 6.7l-0.1-1.2q0.4 0.2 0.7 0.2 0.5 0 0.7-0.2 0.3-0.1 0.5-0.4 0.1-0.2 0.3-0.9 0.1-0.2 0.2-0.4l-2.9-7.6h1.4l1.5 4.4q0.4 0.9 0.6 1.8 0.2-0.9 0.5-1.7l1.6-4.5h1.3l-2.8 7.7q-0.5 1.3-0.8 1.8-0.3 0.6-0.8 0.9-0.4 0.3-1 0.3-0.4 0-0.9-0.2zm12.6-5.3l1.4 0.1q-0.3 1.2-1.2 1.9-0.8 0.6-2.2 0.6-1.6 0-2.6-1-1-1.1-1-2.9 0-1.9 1-3 1-1 2.6-1 1.5 0 2.4 1 1 1 1 2.9 0 0.1 0 0.4h-5.7q0.1 1.2 0.7 1.9 0.7 0.6 1.6 0.6 0.7 0 1.2-0.3 0.5-0.4 0.8-1.2zm-4.2-2.1h4.3q-0.1-1-0.5-1.4-0.7-0.8-1.6-0.8-0.9 0-1.5 0.6-0.6 0.6-0.7 1.6zm7.2 4.5v-7.6h1.1v1.2q0.5-0.8 0.9-1.1 0.3-0.2 0.8-0.2 0.6 0 1.3 0.4l-0.4 1.2q-0.5-0.3-1-0.3-0.4 0-0.8 0.2-0.3 0.3-0.4 0.7-0.2 0.7-0.2 1.5v4z"/><path class="a" d="m613.3 260.8c0 7.7-6.3 14-14 14h-126.2c-7.8 0-14 6.3-14 14 0-7.7-6.3-14-14-14h-126.2c-7.7 0-14-6.3-14-14z"/><path class="a" d="m613.3 260.8c0 7.7-6.3 14-14 14h-126.2c-7.8 0-14 6.3-14 14 0-7.7-6.3-14-14-14h-126.2c-7.7 0-14-6.3-14-14"/><path class="f" d="m613.3 260.8c0 7.7-6.3 14-14 14h-126.2c-7.8 0-14 6.3-14 14 0-7.7-6.3-14-14-14h-126.2c-7.7 0-14-6.3-14-14"/><path class="a" d="m373.4 290.2h172.7v37.2h-172.7z"/><path fill-rule="evenodd" class="m" d="m410.7 313.3v-10.5h4q1.2 0 1.9 0.3 0.7 0.3 1.1 1 0.4 0.7 0.4 1.4 0 0.7-0.3 1.2-0.4 0.6-1.1 1 0.9 0.3 1.4 1 0.6 0.6 0.6 1.5 0 0.8-0.4 1.4-0.3 0.7-0.7 1-0.5 0.4-1.2 0.5-0.7 0.2-1.7 0.2zm1.4-6.1h2.3q0.9 0 1.3-0.1 0.5-0.2 0.8-0.5 0.3-0.4 0.3-0.9 0-0.6-0.3-1-0.2-0.4-0.7-0.5-0.5-0.2-1.6-0.2h-2.1zm0 4.9h2.6q0.7 0 1-0.1 0.5-0.1 0.8-0.3 0.3-0.2 0.5-0.5 0.2-0.4 0.2-0.9 0-0.6-0.3-1-0.3-0.5-0.8-0.6-0.5-0.2-1.5-0.2h-2.5zm13.3 1.2v-1.1q-0.9 1.3-2.4 1.3-0.7 0-1.3-0.3-0.6-0.2-0.9-0.6-0.2-0.4-0.3-1-0.1-0.3-0.1-1.2v-4.7h1.3v4.2q0 1 0 1.4 0.2 0.5 0.5 0.8 0.5 0.3 1 0.3 0.6 0 1.1-0.3 0.5-0.3 0.7-0.8 0.2-0.5 0.2-1.5v-4.1h1.3v7.6zm2.7-2.3l1.2-0.2q0.2 0.8 0.6 1.2 0.5 0.4 1.4 0.4 0.9 0 1.3-0.3 0.5-0.4 0.5-0.9 0-0.4-0.4-0.7-0.3-0.1-1.3-0.4-1.4-0.4-2-0.6-0.5-0.3-0.8-0.7-0.3-0.5-0.3-1.1 0-0.5 0.2-0.9 0.3-0.4 0.7-0.7 0.3-0.3 0.8-0.4 0.5-0.2 1.1-0.2 0.9 0 1.6 0.3 0.6 0.3 1 0.7 0.3 0.4 0.4 1.2l-1.3 0.1q0-0.5-0.5-0.9-0.4-0.3-1.1-0.3-0.9 0-1.3 0.3-0.4 0.3-0.4 0.7 0 0.2 0.2 0.4 0.1 0.2 0.5 0.4 0.2 0.1 1.1 0.3 1.4 0.4 1.9 0.6 0.6 0.2 0.9 0.7 0.3 0.4 0.3 1.1 0 0.6-0.4 1.2-0.4 0.6-1.1 0.9-0.7 0.3-1.6 0.3-1.5 0-2.2-0.6-0.8-0.6-1-1.9zm7.8-6.7v-1.5h1.3v1.5zm0 9v-7.6h1.3v7.6zm3.3 0v-7.6h1.1v1.1q0.9-1.3 2.5-1.3 0.6 0 1.2 0.3 0.6 0.2 0.9 0.6 0.3 0.4 0.4 1 0 0.4 0 1.2v4.7h-1.2v-4.6q0-0.8-0.2-1.2-0.1-0.4-0.5-0.6-0.4-0.2-0.9-0.2-0.8 0-1.4 0.5-0.6 0.5-0.6 2v4.1zm13.3-2.4l1.3 0.1q-0.3 1.2-1.1 1.8-0.9 0.7-2.2 0.7-1.7 0-2.7-1-0.9-1.1-0.9-2.9 0-1.9 1-3 1-1.1 2.5-1.1 1.5 0 2.5 1.1 1 1 1 2.9 0 0.1 0 0.3h-5.7q0.1 1.3 0.7 2 0.7 0.6 1.6 0.6 0.7 0 1.2-0.3 0.5-0.4 0.8-1.2zm-4.2-2.1h4.2q-0.1-1-0.5-1.5-0.6-0.7-1.6-0.7-0.8 0-1.5 0.6-0.6 0.6-0.6 1.6zm6.6 2.2l1.3-0.2q0.1 0.8 0.6 1.2 0.5 0.4 1.4 0.4 0.9 0 1.3-0.3 0.4-0.4 0.4-0.9 0-0.4-0.3-0.7-0.3-0.1-1.4-0.4-1.4-0.4-1.9-0.6-0.6-0.3-0.9-0.7-0.2-0.5-0.2-1.1 0-0.5 0.2-0.9 0.2-0.4 0.6-0.7 0.3-0.3 0.8-0.4 0.6-0.2 1.2-0.2 0.8 0 1.5 0.3 0.7 0.3 1 0.7 0.3 0.4 0.5 1.2l-1.3 0.1q-0.1-0.5-0.5-0.9-0.4-0.3-1.1-0.3-0.9 0-1.3 0.3-0.4 0.3-0.4 0.7 0 0.2 0.2 0.4 0.1 0.2 0.5 0.4 0.1 0.1 1.1 0.3 1.4 0.4 1.9 0.6 0.5 0.2 0.8 0.7 0.4 0.4 0.4 1.1 0 0.6-0.4 1.2-0.4 0.6-1.1 0.9-0.7 0.3-1.6 0.3-1.5 0-2.3-0.6-0.7-0.6-1-1.9zm7.4 0l1.2-0.2q0.1 0.8 0.6 1.2 0.5 0.4 1.4 0.4 0.9 0 1.3-0.3 0.5-0.4 0.5-0.9 0-0.4-0.4-0.7-0.3-0.1-1.3-0.4-1.5-0.4-2-0.6-0.5-0.3-0.8-0.7-0.3-0.5-0.3-1.1 0-0.5 0.2-0.9 0.2-0.4 0.6-0.7 0.3-0.3 0.9-0.4 0.5-0.2 1.1-0.2 0.9 0 1.5 0.3 0.7 0.3 1 0.7 0.4 0.4 0.5 1.2l-1.3 0.1q-0.1-0.5-0.5-0.9-0.4-0.3-1.1-0.3-0.9 0-1.3 0.3-0.4 0.3-0.4 0.7 0 0.2 0.2 0.4 0.1 0.2 0.5 0.4 0.2 0.1 1.1 0.3 1.4 0.4 1.9 0.6 0.6 0.2 0.9 0.7 0.3 0.4 0.3 1.1 0 0.6-0.4 1.2-0.4 0.6-1.1 0.9-0.7 0.3-1.6 0.3-1.5 0-2.2-0.6-0.8-0.6-1-1.9zm12 2.3v-10.5h1.4v9.3h5.1v1.2zm13-0.9q-0.7 0.6-1.3 0.8-0.7 0.3-1.5 0.3-1.2 0-1.9-0.6-0.7-0.6-0.7-1.6 0-0.5 0.3-1 0.2-0.5 0.7-0.8 0.4-0.2 0.9-0.4 0.4-0.1 1.1-0.2 1.6-0.1 2.3-0.4 0-0.3 0-0.3 0-0.8-0.3-1.2-0.5-0.4-1.5-0.4-0.9 0-1.3 0.3-0.5 0.4-0.7 1.1l-1.2-0.1q0.1-0.8 0.5-1.3 0.4-0.5 1.2-0.8 0.7-0.3 1.7-0.3 1 0 1.6 0.3 0.6 0.2 0.9 0.5 0.3 0.4 0.4 0.9 0 0.3 0 1.2v1.7q0 1.8 0.1 2.3 0.1 0.5 0.3 0.9h-1.3q-0.2-0.4-0.3-0.9zm-0.1-2.9q-0.7 0.3-2.1 0.5-0.8 0.1-1.1 0.3-0.3 0.1-0.5 0.4-0.2 0.2-0.2 0.6 0 0.5 0.4 0.8 0.4 0.4 1.2 0.4 0.7 0 1.3-0.3 0.6-0.4 0.8-0.9 0.2-0.5 0.2-1.3zm3.3 6.7l-0.2-1.2q0.5 0.1 0.8 0.1 0.4 0 0.7-0.1 0.2-0.2 0.4-0.4 0.1-0.2 0.4-1 0-0.1 0.1-0.3l-2.9-7.6h1.4l1.6 4.4q0.3 0.8 0.5 1.7 0.3-0.8 0.5-1.7l1.7-4.4h1.3l-2.9 7.7q-0.5 1.3-0.8 1.7-0.3 0.7-0.7 1-0.5 0.3-1.1 0.3-0.4 0-0.8-0.2zm12.6-5.4l1.3 0.2q-0.3 1.2-1.2 1.8-0.8 0.7-2.1 0.7-1.7 0-2.7-1.1-1-1-1-2.9 0-1.9 1-2.9 1-1.1 2.6-1.1 1.5 0 2.5 1 0.9 1.1 0.9 3 0 0.1 0 0.3h-5.6q0 1.3 0.7 1.9 0.6 0.7 1.6 0.7 0.7 0 1.2-0.4 0.5-0.3 0.8-1.2zm-4.3-2h4.3q-0.1-1-0.5-1.5-0.6-0.7-1.6-0.7-0.9 0-1.5 0.6-0.6 0.6-0.7 1.6zm7.2 4.5v-7.6h1.2v1.1q0.4-0.8 0.8-1 0.4-0.3 0.8-0.3 0.7 0 1.3 0.4l-0.4 1.2q-0.5-0.3-1-0.3-0.4 0-0.7 0.3-0.4 0.2-0.5 0.7-0.2 0.7-0.2 1.5v4z"/><path class="a" d="m920.2 259.7c0 7.7-6.3 13.9-14 13.9h-114.5c-7.7 0-14 6.3-14 14 0-7.7-6.3-14-14-14h-114.5c-7.7 0-14-6.2-14-13.9z"/><path class="a" d="m920.2 259.7c0 7.7-6.3 13.9-14 13.9h-114.5c-7.7 0-14 6.3-14 14 0-7.7-6.3-14-14-14h-114.5c-7.7 0-14-6.2-14-13.9"/><path class="f" d="m920.2 259.7c0 7.7-6.3 13.9-14 13.9h-114.5c-7.7 0-14 6.3-14 14 0-7.7-6.3-14-14-14h-114.5c-7.7 0-14-6.2-14-13.9"/><path class="a" d="m692 290.2h172.7v37.2h-172.7z"/><path fill-rule="evenodd" class="m" d="m743.7 313.3v-10.5h3.6q1.2 0 1.8 0.2 1 0.2 1.6 0.7 0.8 0.7 1.2 1.8 0.4 1.1 0.4 2.5 0 1.2-0.2 2.1-0.3 0.9-0.8 1.5-0.4 0.6-0.9 1-0.5 0.3-1.3 0.5-0.7 0.2-1.6 0.2zm1.3-1.2h2.3q1 0 1.6-0.2 0.6-0.2 1-0.6 0.5-0.5 0.7-1.3 0.3-0.8 0.3-2 0-1.7-0.5-2.5-0.6-0.9-1.4-1.2-0.5-0.3-1.7-0.3h-2.3zm14 0.3q-0.7 0.7-1.3 0.9-0.7 0.3-1.5 0.3-1.2 0-1.9-0.7-0.7-0.6-0.7-1.5 0-0.6 0.3-1 0.2-0.5 0.7-0.8 0.4-0.3 0.9-0.4 0.4-0.1 1.1-0.2 1.6-0.2 2.3-0.4 0-0.3 0-0.4 0-0.8-0.3-1.1-0.5-0.4-1.5-0.4-0.9 0-1.3 0.3-0.5 0.3-0.7 1.1l-1.2-0.2q0.1-0.8 0.5-1.3 0.4-0.5 1.2-0.7 0.7-0.3 1.7-0.3 1 0 1.6 0.2 0.6 0.3 0.9 0.6 0.3 0.4 0.4 0.9 0 0.3 0 1.2v1.7q0 1.8 0.1 2.3 0.1 0.4 0.3 0.9h-1.3q-0.2-0.4-0.3-1zm-0.1-2.8q-0.7 0.2-2.1 0.5-0.8 0.1-1.1 0.2-0.3 0.2-0.5 0.4-0.2 0.3-0.2 0.6 0 0.5 0.4 0.9 0.4 0.3 1.2 0.3 0.7 0 1.3-0.3 0.6-0.3 0.8-0.9 0.2-0.4 0.2-1.3zm6.2 2.7l0.1 1.1q-0.5 0.1-0.9 0.1-0.7 0-1.1-0.2-0.4-0.2-0.6-0.6-0.1-0.3-0.1-1.5v-4.3h-1v-1h1v-1.9l1.3-0.8v2.7h1.3v1h-1.3v4.4q0 0.5 0 0.7 0.1 0.2 0.2 0.3 0.2 0 0.5 0 0.2 0 0.6 0zm6.2 0.2q-0.8 0.6-1.4 0.9-0.7 0.2-1.4 0.2-1.3 0-2-0.6-0.6-0.6-0.6-1.6 0-0.5 0.2-1 0.3-0.4 0.7-0.7 0.4-0.3 0.9-0.4 0.4-0.1 1.2-0.2 1.5-0.2 2.3-0.5 0-0.2 0-0.3 0-0.8-0.4-1.1-0.5-0.5-1.5-0.5-0.9 0-1.3 0.4-0.4 0.3-0.6 1.1l-1.3-0.2q0.2-0.8 0.6-1.3 0.3-0.5 1.1-0.8 0.7-0.2 1.7-0.2 1 0 1.6 0.2 0.6 0.2 0.9 0.6 0.3 0.3 0.4 0.9 0.1 0.3 0.1 1.1v1.8q0 1.8 0 2.2 0.1 0.5 0.4 0.9h-1.4q-0.2-0.4-0.2-0.9zm-0.1-2.9q-0.7 0.3-2.1 0.5-0.8 0.1-1.2 0.3-0.3 0.1-0.5 0.4-0.2 0.3-0.2 0.6 0 0.5 0.4 0.9 0.4 0.3 1.2 0.3 0.7 0 1.3-0.3 0.6-0.3 0.9-0.9 0.2-0.4 0.2-1.3zm7.4 3.8v-10.5h1.4v9.3h5.2v1.2zm13-0.9q-0.7 0.6-1.4 0.8-0.6 0.3-1.4 0.3-1.3 0-1.9-0.6-0.7-0.6-0.7-1.6 0-0.5 0.2-1 0.3-0.5 0.7-0.7 0.4-0.3 0.9-0.5 0.4-0.1 1.2-0.2 1.5-0.1 2.3-0.4 0-0.3 0-0.3 0-0.8-0.4-1.1-0.5-0.5-1.4-0.5-1 0-1.4 0.3-0.4 0.4-0.6 1.2l-1.3-0.2q0.2-0.8 0.6-1.3 0.4-0.5 1.1-0.8 0.8-0.2 1.7-0.2 1 0 1.6 0.2 0.6 0.2 0.9 0.5 0.3 0.4 0.4 0.9 0.1 0.4 0.1 1.2v1.7q0 1.8 0.1 2.3 0 0.5 0.3 0.9h-1.4q-0.2-0.4-0.2-0.9zm-0.1-2.9q-0.7 0.3-2.1 0.5-0.8 0.1-1.1 0.3-0.4 0.1-0.6 0.4-0.1 0.2-0.1 0.6 0 0.5 0.4 0.8 0.3 0.4 1.1 0.4 0.7 0 1.3-0.3 0.6-0.4 0.9-0.9 0.2-0.5 0.2-1.3zm3.2 6.7l-0.1-1.2q0.4 0.1 0.7 0.1 0.5 0 0.7-0.1 0.3-0.2 0.4-0.4 0.1-0.2 0.4-1 0.1-0.1 0.1-0.3l-2.9-7.6h1.4l1.6 4.4q0.3 0.8 0.6 1.7 0.2-0.8 0.5-1.7l1.6-4.4h1.3l-2.9 7.7q-0.4 1.3-0.7 1.7-0.4 0.7-0.8 1-0.4 0.3-1.1 0.3-0.3 0-0.8-0.2zm12.6-5.4l1.3 0.2q-0.3 1.2-1.1 1.8-0.9 0.7-2.2 0.7-1.7 0-2.7-1.1-0.9-1-0.9-2.8 0-2 1-3 1-1.1 2.5-1.1 1.6 0 2.5 1.1 1 1 1 2.9 0 0.1 0 0.3h-5.7q0.1 1.3 0.7 1.9 0.7 0.7 1.6 0.7 0.7 0 1.2-0.4 0.5-0.3 0.8-1.2zm-4.2-2h4.2q-0.1-1-0.5-1.5-0.6-0.7-1.6-0.7-0.8 0-1.4 0.6-0.7 0.6-0.7 1.6zm7.1 4.5v-7.6h1.2v1.1q0.5-0.8 0.8-1 0.4-0.3 0.8-0.3 0.7 0 1.4 0.4l-0.5 1.2q-0.4-0.3-0.9-0.3-0.4 0-0.8 0.3-0.3 0.2-0.5 0.7-0.2 0.7-0.2 1.5v4z"/></g></svg>