<svg version="1.2" xmlns="http://www.w3.org/2000/svg" viewBox="0 0 64 24" width="64" height="24"><style>.a{fill:#fff}.b{fill:#4184e9} @media (prefers-color-scheme: dark) {.c { fill: #fff; } }</style><path class="a" d="m2 6h13v12h-13z"/><path fill-rule="evenodd" class="b" d="m18 5v14c0 1.1-0.9 2-2 2h-14c-1.1 0-2-0.9-2-2v-14c0-1.1 0.9-2 2-2h14c1.1 0 2 0.9 2 2zm-12 5h-2v7h2zm4-3h-2v10h2zm4 6h-2v4h2z"/><path class="c" fill-rule="evenodd" d="m25.5 7.2h1.4v1.9h1.4v1h-1.4v4.9q0 0.5 0.2 0.8 0.2 0.2 0.6 0.2 0.3 0 0.7-0.1v1.1q-0.6 0.1-1.1 0.1-0.9 0-1.3-0.5-0.5-0.6-0.5-1.6v-4.9h-1.4v-1h1.4zm8.3 1.9v1.2q-0.4 0-0.7 0-1.3 0-1.8 1.1v5.6h-1.4v-7.9h1.3l0.1 0.9q0.6-1.1 1.9-1.1 0.4 0 0.6 0.2zm7.2 7.9h-1.4q-0.1-0.2-0.2-0.8-0.9 1-2.2 1-1.2 0-2-0.7-0.7-0.7-0.7-1.7 0-1.2 0.9-1.9 1-0.7 2.7-0.7h1.3v-0.6q0-0.7-0.4-1.1-0.5-0.5-1.3-0.5-0.7 0-1.2 0.4-0.5 0.4-0.5 0.9h-1.4q0-0.6 0.5-1.2 0.4-0.5 1.1-0.8 0.7-0.4 1.6-0.4 1.4 0 2.1 0.7 0.8 0.7 0.8 1.9v3.7q0 1.1 0.3 1.7zm-3.6-1q0.6 0 1.2-0.4 0.5-0.3 0.8-0.8v-1.6h-1.1q-2.5 0-2.5 1.4 0 0.7 0.5 1 0.4 0.4 1.1 0.4zm8.6 0q0.8 0 1.3-0.4 0.6-0.4 0.6-1.1h1.3q0 0.7-0.5 1.3-0.4 0.6-1.1 1-0.7 0.3-1.6 0.3-1.6 0-2.5-1-1-1.1-1-3v-0.2q0-1.2 0.4-2.1 0.5-0.9 1.3-1.4 0.8-0.5 1.8-0.5 1.4 0 2.3 0.8 0.8 0.8 0.9 2.1h-1.3q0-0.8-0.6-1.3-0.5-0.5-1.3-0.5-1 0-1.6 0.8-0.5 0.7-0.5 2.1v0.3q0 1.4 0.5 2.1 0.6 0.7 1.6 0.7zm9.7 1l-2.8-3.7-0.8 0.9v2.8h-1.4v-11.2h1.4v6.8l0.7-0.9 2.5-2.6h1.6l-3.1 3.3 3.5 4.6zm6.4-8v1.3q-0.3-0.1-0.6-0.1-1.4 0-1.8 1.2v5.6h-1.4v-7.9h1.3l0.1 0.9q0.6-1.1 1.8-1.1 0.4 0 0.6 0.1z"/></svg>